<svg id="Layer_1" xmlns="http://www.w3.org/2000/svg" xmlns:xlink="http://www.w3.org/1999/xlink" viewBox="0 0 1032 1045.4"><style>.st0{fill:#FFFFFF;} .st1{fill:#1071B9;} .st2{fill:#353238;} .st3{fill:#E6E7E8;} .st4{fill:#BD4E4E;} .st5{fill:#E2B652;} .st6{fill:#8EC85D;} .st7{fill:#414042;} .st8{fill:#EBDEC7;} .st9{fill:#D54F28;} .st10{fill:#488F84;} .st11{fill:#F3DE84;} .st12{fill:none;stroke:#939598;stroke-width:2;stroke-miterlimit:10;} .st13{fill:none;stroke:#A7A9AC;stroke-width:2;stroke-miterlimit:10;} .st14{fill:none;stroke:#808285;stroke-width:4;stroke-linecap:round;stroke-linejoin:round;stroke-miterlimit:10;} .st15{fill:none;stroke:#69BD45;stroke-width:2;stroke-miterlimit:10;} .st16{fill:none;stroke:#69BD45;stroke-width:2;stroke-miterlimit:10;stroke-dasharray:2.9743,2.9743;} .st17{fill:none;stroke:#69BD45;stroke-width:2;stroke-miterlimit:10;stroke-dasharray:3.0236,3.0236;} .st18{fill:none;stroke:#69BD45;stroke-width:2;stroke-miterlimit:10;stroke-dasharray:3.1247,3.1247;} .st19{fill:#69BD45;} .st20{fill:none;stroke:#69BD45;stroke-width:2;stroke-miterlimit:10;stroke-dasharray:3;}</style><path class="st0" d="M0 0h1032v1045.4H0z"/><path class="st1" d="M218 106.5H0v-72h219.4c19 0 34.3 15.4 34.3 34.3v1.9c0 19.8-16 35.8-35.7 35.8z"/><image width="2004" height="336" xlink:href="../../../../../../../Users/iShadeed/Desktop/Screen Shot 2016-09-22 at 7.54.16 PM.png" transform="translate(-12.743 -193.096) scale(.2525)" overflow="visible"/><path class="st2" d="M331.9 161.6v228c0 6.6-5.4 12-12 12h-252c-6.6 0-12-5.4-12-12v-228h276z"/><path class="st3" d="M331.9 147.6v14h-276v-14c0-6.6 5.4-12 12-12h252c6.6 0 12 5.4 12 12z"/><circle class="st4" cx="72.1" cy="148.6" r="3.5"/><circle class="st5" cx="82.1" cy="148.6" r="3.5"/><circle class="st6" cx="92.9" cy="148.6" r="3.5"/><path class="st7" d="M237.3 147.3h.8l.6 2.5.3 1.2.3-1.2.7-2.5h.7l.7 2.5.3 1.2.3-1.2.6-2.5h.7l-1.2 4.4h-.9l-.6-2.3c-.1-.4-.2-.8-.3-1.3-.1.4-.2.9-.3 1.3l-.6 2.3h-.9l-1.2-4.4zM243.8 147.3h.8l.6 2.5.3 1.2.3-1.2.7-2.5h.7l.7 2.5.3 1.2.3-1.2.6-2.5h.7l-1.2 4.4h-.9l-.6-2.3c-.1-.4-.2-.8-.3-1.3-.1.4-.2.9-.3 1.3l-.6 2.3h-.9l-1.2-4.4zM250.2 147.3h.8l.6 2.5.3 1.2.3-1.2.7-2.5h.7l.7 2.5.3 1.2.3-1.2.6-2.5h.7l-1.2 4.4h-.9l-.6-2.3c-.1-.4-.2-.8-.3-1.3-.1.4-.2.9-.3 1.3l-.6 2.3h-.9l-1.2-4.4zM257.6 150.6c.3 0 .5.2.5.6 0 .3-.2.6-.5.6s-.5-.2-.5-.6c0-.4.2-.6.5-.6zM262 148.9c0-.6-.2-1.1-.9-1.1-.5 0-1 .2-1.3.5l-.3-.5c.4-.3 1-.6 1.7-.6 1.1 0 1.5.7 1.5 1.8v2.7h-.6l-.1-.5c-.4.3-.9.6-1.4.6-.7 0-1.3-.5-1.3-1.2 0-1.1.8-1.5 2.7-1.7zm-1.2 2.2c.4 0 .8-.2 1.2-.6v-1.2c-1.5.2-2 .5-2 1.1 0 .5.3.7.8.7zM264.1 151h1.3v-4.2h-1v-.5c.5-.1.9-.2 1.2-.4h.6v5.1h1.2v.6h-3.2v-.6zM268.5 151h1.3v-4.2h-1v-.5c.5-.1.9-.2 1.2-.4h.6v5.1h1.2v.6h-3.2v-.6zM273.1 152.9c.5 0 .8-.4 1-.9l.1-.3-1.8-4.4h.8l.9 2.4c.1.4.3.8.4 1.2.1-.4.3-.8.4-1.2l.8-2.4h.7l-1.6 4.7c-.3.9-.8 1.5-1.6 1.5-.2 0-.4 0-.5-.1l.1-.6c0 .1.2.1.3.1zM277.2 147.3h.6l.1.6c.4-.4.8-.7 1.4-.7.7 0 1 .3 1.2.8.5-.5.9-.8 1.4-.8.9 0 1.3.6 1.3 1.7v2.8h-.7V149c0-.8-.3-1.2-.8-1.2-.3 0-.7.2-1.1.7v3.2h-.7V149c0-.8-.3-1.2-.8-1.2-.3 0-.7.2-1.1.7v3.2h-.7v-4.4zM287.2 148.9c0-.6-.2-1.1-.9-1.1-.5 0-1 .2-1.3.5l-.3-.5c.4-.3 1-.6 1.7-.6 1.1 0 1.5.7 1.5 1.8v2.7h-.6l-.1-.5c-.4.3-.9.6-1.4.6-.7 0-1.3-.5-1.3-1.2 0-1.1.8-1.5 2.7-1.7zm-1.2 2.2c.4 0 .8-.2 1.2-.6v-1.2c-1.5.2-2 .5-2 1.1 0 .5.3.7.8.7zM289.4 147.9h-.6v-.6h.7l.1-1.2h.6v1.2h1.2v.6h-1.2v2.4c0 .5.2.8.7.8.2 0 .4-.1.5-.1l.1.6c-.2.1-.5.2-.8.2-.9 0-1.3-.6-1.3-1.5v-2.4zM292.5 147.9h-.6v-.6h.7l.1-1.2h.6v1.2h1.2v.6h-1.2v2.4c0 .5.2.8.7.8.2 0 .4-.1.5-.1l.1.6c-.2.1-.5.2-.8.2-.9 0-1.3-.6-1.3-1.5v-2.4zM297 147.2c1.1 0 1.7.8 1.7 2.1v.4h-3c.1.9.6 1.5 1.5 1.5.4 0 .8-.1 1.1-.3l.3.5c-.4.2-.8.5-1.4.5-1.2 0-2.1-.9-2.1-2.3 0-1.6.9-2.4 1.9-2.4zm1.1 1.9c0-.9-.4-1.4-1.1-1.4-.6 0-1.2.5-1.3 1.4h2.4zM299.8 147.3h.6l.1.8c.3-.5.7-.9 1.2-.9.2 0 .3 0 .5.1l-.1.6c-.1 0-.2-.1-.4-.1-.4 0-.8.3-1.1 1v2.8h-.7v-4.3zM302.9 150.6c.4.3.8.5 1.3.5.6 0 .9-.3.9-.7 0-.5-.5-.6-1-.8-.6-.2-1.3-.5-1.3-1.3 0-.7.6-1.2 1.5-1.2.5 0 1 .2 1.4.5l-.4.5c-.3-.2-.6-.4-1-.4-.5 0-.8.3-.8.6 0 .4.5.6 1 .8.6.2 1.3.5 1.3 1.3 0 .7-.6 1.3-1.6 1.3-.6 0-1.2-.3-1.6-.6l.3-.5zM307.1 150.6c.3 0 .5.2.5.6 0 .3-.2.6-.5.6s-.5-.2-.5-.6c0-.4.2-.6.5-.6zM310.8 147.2c.6 0 1 .2 1.3.5l-.4.5c-.3-.2-.5-.4-.9-.4-.8 0-1.4.7-1.4 1.7s.5 1.7 1.4 1.7c.4 0 .8-.2 1-.4l.3.5c-.4.4-.9.6-1.4.6-1.2 0-2.1-.8-2.1-2.3.1-1.6 1-2.4 2.2-2.4zM314.8 147.2c1.1 0 2 .8 2 2.3 0 1.4-1 2.3-2 2.3-1.1 0-2-.8-2-2.3 0-1.5.9-2.3 2-2.3zm0 3.9c.8 0 1.3-.7 1.3-1.7s-.5-1.7-1.3-1.7c-.7 0-1.3.7-1.3 1.7 0 1.1.5 1.7 1.3 1.7zM318 147.3h.6l.1.6c.4-.4.8-.7 1.4-.7.7 0 1 .3 1.2.8.5-.5.9-.8 1.4-.8.9 0 1.3.6 1.3 1.7v2.8h-.7V149c0-.8-.3-1.2-.8-1.2-.3 0-.7.2-1.1.7v3.2h-.7V149c0-.8-.3-1.2-.8-1.2-.3 0-.7.2-1.1.7v3.2h-.8v-4.4z"/><path class="st8" d="M68.6 170.6h107.2v5.5H68.6zM68.6 389.1h107.2v5.5H68.6z"/><path class="st9" d="M77.1 182.6h107.2v5.5H77.1z"/><path class="st10" d="M93 206.7h107.2v5.5H93zM93 266.9h107.2v5.5H93z"/><path class="st8" d="M112.3 278.9h155.6v5.5H112.3zM112.3 290.8h155.6v5.5H112.3zM112.3 303h155.6v5.5H112.3zM112.3 315.2h155.6v5.5H112.3zM112.3 329.4h155.6v5.5H112.3zM98.1 218.7h155.6v5.5H98.1zM98.1 230.7h155.6v5.5H98.1zM98.1 242.8h155.6v5.5H98.1zM98.1 254.8h155.6v5.5H98.1z"/><path class="st10" d="M93 347.6h107.2v5.5H93z"/><path class="st11" d="M85.1 194.7h138.8v5.5H85.1zM85.1 362.1h138.8v5.5H85.1z"/><path class="st9" d="M77.1 375.6h107.2v5.5H77.1z"/><g><path class="st2" d="M55 429h5.9c6.4 0 10.5 3.2 10.5 10.3 0 7.2-4.1 10.5-10.2 10.5H55V429zm5.7 17.1c3.5 0 5.9-1.7 5.9-6.7s-2.4-6.5-5.9-6.5h-.9v13.2h.9zM74.3 439.4c0-6.8 3.9-10.7 9.5-10.7s9.5 3.9 9.5 10.7c0 6.8-3.8 10.9-9.5 10.9-5.6 0-9.5-4.1-9.5-10.9zm14.1 0c0-4.2-1.8-6.7-4.6-6.7s-4.6 2.5-4.6 6.7 1.8 6.8 4.6 6.8 4.6-2.7 4.6-6.8zM97.2 429h5l3.5 9.4 1.2 3.6h.1l1.2-3.6 3.4-9.4h5v20.9h-4.4v-7.6c0-2 .4-5.1.6-7.1h-.1L111 440l-3.2 8.1h-1.9l-3.2-8.1-1.7-4.8h-.1c.2 2 .6 5.1.6 7.1v7.6h-4.4V429z"/></g><g><path class="st2" d="M55.1 464.4h1.8v6.1h6.7v-6.1h1.8v14.4h-1.8V472h-6.7v6.8h-1.8v-14.4zM72.3 465.9h-4.4v-1.5h10.6v1.5h-4.4v12.9h-1.8v-12.9zM81 464.4h2.2l2.8 7.7 1 2.9h.1l1-2.9 2.8-7.7H93v14.4h-1.7v-7.9c0-1.3.2-3 .2-4.3h-.1l-1.1 3.2-2.8 7.5h-1.1l-2.8-7.5-1.1-3.2h-.1c.1 1.3.2 3 .2 4.3v7.9H81v-14.4zM96.9 464.4h1.8v12.9h6.3v1.6h-8.1v-14.5zM112 475.7c1 1.1 2.5 1.8 4 1.8 1.9 0 3-.9 3-2.4s-1.1-1.9-2.4-2.6l-2.1-.9c-1.3-.6-2.9-1.6-2.9-3.7 0-2.2 1.9-3.8 4.6-3.8 1.7 0 3.2.7 4.2 1.8l-1 1.2c-.9-.8-2-1.4-3.3-1.4-1.6 0-2.7.8-2.7 2.1 0 1.4 1.3 1.9 2.4 2.4l2.1.9c1.7.7 3 1.7 3 3.9 0 2.3-1.9 4.1-4.9 4.1-2 0-3.8-.8-5-2.1l1-1.3zM127.6 467.9c2.6 0 5 2 5 5.6 0 3.5-2.3 5.6-5 5.6s-5-2-5-5.6c0-3.6 2.4-5.6 5-5.6zm0 9.7c1.8 0 3.1-1.7 3.1-4.1 0-2.5-1.2-4.1-3.1-4.1-1.8 0-3.1 1.7-3.1 4.1 0 2.5 1.3 4.1 3.1 4.1zM135.2 468.1h1.8v6.5c0 2 .6 2.9 2 2.9 1.1 0 1.9-.6 2.9-1.8v-7.6h1.8v10.7h-1.5l-.2-1.7c-1 1.2-2 1.9-3.5 1.9-2.3 0-3.3-1.5-3.3-4.2v-6.7zM147.3 468.1h1.5l.2 1.9h.1c.7-1.3 1.8-2.2 3-2.2.5 0 .8.1 1.1.2l-.4 1.6c-.4-.1-.6-.2-1-.2-.9 0-2 .7-2.7 2.5v6.9h-1.8v-10.7zM159.3 467.9c1.4 0 2.4.6 3.1 1.3l-.9 1.2c-.6-.5-1.3-.9-2.2-.9-1.9 0-3.3 1.7-3.3 4.1 0 2.4 1.3 4.1 3.3 4.1 1 0 1.9-.5 2.5-1.1l.8 1.2c-1 .9-2.2 1.4-3.5 1.4-2.8 0-5-2-5-5.6.1-3.7 2.5-5.7 5.2-5.7zM169 467.9c2.7 0 4.3 2 4.3 5 0 .4 0 .7-.1 1H166c.1 2.3 1.5 3.8 3.6 3.8 1 0 1.9-.3 2.7-.8l.6 1.2c-.9.6-2.1 1.1-3.5 1.1-2.9 0-5.1-2.1-5.1-5.6-.1-3.6 2.2-5.7 4.7-5.7zm2.7 4.8c0-2.2-1-3.4-2.6-3.4-1.5 0-2.9 1.2-3.1 3.4h5.7z"/></g><g><path class="st2" d="M613.8 464.4h1.8v6.1h6.7v-6.1h1.8v14.4h-1.8V472h-6.7v6.8h-1.8v-14.4zM632.1 467.9c2.6 0 5 2 5 5.6 0 3.5-2.3 5.6-5 5.6-2.6 0-5-2-5-5.6 0-3.6 2.4-5.6 5-5.6zm0 9.7c1.8 0 3.1-1.7 3.1-4.1 0-2.5-1.2-4.1-3.1-4.1-1.8 0-3.1 1.7-3.1 4.1 0 2.5 1.2 4.1 3.1 4.1zM638.6 468.1h1.8l1.6 6.2.6 3h.1c.2-1 .5-2 .7-3l1.7-6.2h1.8l1.7 6.2c.3 1 .5 2 .7 3h.1c.2-1 .4-2 .7-3l1.6-6.2h1.7l-2.9 10.7h-2.2l-1.5-5.7c-.3-1-.5-2-.7-3.1h-.1c-.2 1.1-.5 2.1-.7 3.1l-1.5 5.7h-2.1l-3.1-10.7zM660.1 463.2h1.8V469.4c1-.9 2.2-1.5 3.3-1.5 2.8 0 4.2 2.1 4.2 5.4 0 3.7-2.2 5.8-4.6 5.8-1 0-2.1-.5-3.1-1.3h-.1l-.2 1.1h-1.5v-15.7zm4.4 14.4c1.8 0 3.1-1.6 3.1-4.2 0-2.4-.8-3.9-2.8-3.9-.9 0-1.8.5-2.9 1.5v5.6c.9.7 1.9 1 2.6 1zM672.3 468.1h1.5l.2 1.9h.1c.7-1.3 1.8-2.2 3-2.2.5 0 .8.1 1.1.2l-.4 1.6c-.4-.1-.6-.2-1-.2-.9 0-2 .7-2.7 2.5v6.9h-1.8v-10.7zM684.1 467.9c2.6 0 5 2 5 5.6 0 3.5-2.3 5.6-5 5.6-2.6 0-5-2-5-5.6 0-3.6 2.4-5.6 5-5.6zm0 9.7c1.8 0 3.1-1.7 3.1-4.1 0-2.5-1.2-4.1-3.1-4.1-1.8 0-3.1 1.7-3.1 4.1 0 2.5 1.2 4.1 3.1 4.1zM690.6 468.1h1.8l1.6 6.2.6 3h.1c.2-1 .5-2 .7-3l1.7-6.2h1.8l1.7 6.2c.3 1 .5 2 .7 3h.1c.2-1 .4-2 .7-3l1.6-6.2h1.7l-2.9 10.7h-2.2l-1.5-5.7c-.3-1-.5-2-.7-3.1h-.1c-.2 1.1-.5 2.1-.7 3.1l-1.5 5.7h-2.1l-3.1-10.7zM707.4 476.4c.9.7 1.9 1.3 3.1 1.3 1.4 0 2.1-.7 2.1-1.7 0-1.1-1.3-1.6-2.4-2-1.5-.5-3.2-1.3-3.2-3.1 0-1.7 1.4-3 3.7-3 1.3 0 2.5.6 3.3 1.2l-.9 1.1c-.7-.5-1.5-.9-2.4-.9-1.3 0-2 .7-2 1.5 0 1 1.2 1.4 2.4 1.8 1.5.6 3.3 1.2 3.3 3.2 0 1.7-1.4 3.2-3.9 3.2-1.5 0-3-.6-4-1.5l.9-1.1zM720.9 467.9c2.7 0 4.3 2 4.3 5 0 .4 0 .7-.1 1h-7.2c.1 2.3 1.5 3.8 3.6 3.8 1 0 1.9-.3 2.7-.8l.6 1.2c-.9.6-2.1 1.1-3.5 1.1-2.9 0-5.1-2.1-5.1-5.6-.1-3.6 2.2-5.7 4.7-5.7zm2.6 4.8c0-2.2-1-3.4-2.6-3.4-1.5 0-2.9 1.2-3.1 3.4h5.7zM727.8 468.1h1.5l.2 1.9h.1c.7-1.3 1.8-2.2 3-2.2.5 0 .8.1 1.1.2l-.4 1.6c-.4-.1-.6-.2-1-.2-.9 0-2 .7-2.7 2.5v6.9h-1.8v-10.7zM735.1 476.4c.9.7 1.9 1.3 3.1 1.3 1.4 0 2.1-.7 2.1-1.7 0-1.1-1.3-1.6-2.4-2-1.5-.5-3.2-1.3-3.2-3.1 0-1.7 1.4-3 3.7-3 1.3 0 2.5.6 3.3 1.2l-.9 1.1c-.7-.5-1.5-.9-2.4-.9-1.3 0-2 .7-2 1.5 0 1 1.2 1.4 2.4 1.8 1.5.6 3.3 1.2 3.3 3.2 0 1.7-1.4 3.2-3.9 3.2-1.5 0-3-.6-4-1.5l.9-1.1zM755.1 472.1c0-1.4-.5-2.7-2.2-2.7-1.3 0-2.4.6-3.2 1.1l-.7-1.3c1-.6 2.5-1.4 4.2-1.4 2.6 0 3.7 1.7 3.7 4.4v6.6h-1.5l-.2-1.3c-1 .8-2.2 1.5-3.5 1.5-1.8 0-3.1-1.1-3.1-3-.1-2.3 2-3.4 6.5-3.9zm-2.9 5.5c1 0 1.9-.5 2.9-1.4v-3c-3.6.4-4.8 1.3-4.8 2.7 0 1.2.8 1.7 1.9 1.7zM760.3 468.1h1.5l.2 1.5h.1c1-1 2.1-1.8 3.6-1.8 2.2 0 3.3 1.5 3.3 4.2v6.8h-1.8v-6.5c0-2-.6-2.9-2-2.9-1.1 0-1.8.6-2.9 1.7v7.7h-1.8v-10.7zM776.2 467.9c1.2 0 2 .5 3 1.2l-.1-1.8v-4.1h1.8v15.7h-1.5l-.2-1.3h-.1c-.8.8-2 1.5-3.2 1.5-2.7 0-4.4-2-4.4-5.6.1-3.5 2.3-5.6 4.7-5.6zm.2 9.7c1 0 1.8-.5 2.7-1.5v-5.6c-.9-.8-1.7-1.1-2.6-1.1-1.7 0-3.1 1.7-3.1 4.1.1 2.5 1.1 4.1 3 4.1zM795.7 474.4h-5.3l-1.4 4.4h-1.9l4.9-14.4h2.1l4.9 14.4h-1.9l-1.4-4.4zm-.4-1.4l-.7-2.2c-.5-1.6-1-3.2-1.4-4.9h-.1c-.5 1.7-.9 3.3-1.4 4.9l-.7 2.2h4.3zM804 465.9h-4.4v-1.5h10.6v1.5h-4.4v12.9H804v-12.9zM812.2 476.4c.9.7 1.9 1.3 3.1 1.3 1.4 0 2.1-.7 2.1-1.7 0-1.1-1.3-1.6-2.4-2-1.5-.5-3.2-1.3-3.2-3.1 0-1.7 1.4-3 3.7-3 1.3 0 2.5.6 3.3 1.2l-.9 1.1c-.7-.5-1.5-.9-2.4-.9-1.3 0-2 .7-2 1.5 0 1 1.2 1.4 2.4 1.8 1.5.6 3.3 1.2 3.3 3.2 0 1.7-1.4 3.2-3.9 3.2-1.5 0-3-.6-4-1.5l.9-1.1zM826.2 468.1h1.5l.2 1.9h.1c.7-1.3 1.8-2.2 3-2.2.5 0 .8.1 1.1.2l-.4 1.6c-.4-.1-.6-.2-1-.2-.9 0-2 .7-2.7 2.5v6.9h-1.8v-10.7zM837.8 467.9c2.7 0 4.3 2 4.3 5 0 .4 0 .7-.1 1h-7.2c.1 2.3 1.5 3.8 3.6 3.8 1 0 1.9-.3 2.7-.8l.6 1.2c-.9.6-2.1 1.1-3.5 1.1-2.9 0-5.1-2.1-5.1-5.6-.1-3.6 2.3-5.7 4.7-5.7zm2.7 4.8c0-2.2-1-3.4-2.6-3.4-1.5 0-2.9 1.2-3.1 3.4h5.7zM850.8 472.1c0-1.4-.5-2.7-2.2-2.7-1.3 0-2.4.6-3.2 1.1l-.7-1.3c1-.6 2.5-1.4 4.2-1.4 2.6 0 3.7 1.7 3.7 4.4v6.6h-1.5l-.2-1.3c-1 .8-2.2 1.5-3.5 1.5-1.8 0-3.1-1.1-3.1-3-.1-2.3 1.9-3.4 6.5-3.9zm-2.9 5.5c1 0 1.9-.5 2.9-1.4v-3c-3.6.4-4.8 1.3-4.8 2.7 0 1.2.8 1.7 1.9 1.7zM859.9 467.9c1.2 0 2 .5 3 1.2l-.1-1.8v-4.1h1.8v15.7h-1.5l-.2-1.3h-.1c-.8.8-2 1.5-3.2 1.5-2.7 0-4.4-2-4.4-5.6 0-3.5 2.2-5.6 4.7-5.6zm.1 9.7c1 0 1.8-.5 2.7-1.5v-5.6c-.9-.8-1.7-1.1-2.6-1.1-1.7 0-3.1 1.7-3.1 4.1.1 2.5 1.2 4.1 3 4.1zM873 469.6h-1.6v-1.4l1.7-.1.2-3h1.5v3h2.9v1.5h-2.9v5.9c0 1.3.4 2.1 1.7 2.1.4 0 .9-.2 1.2-.3l.4 1.4c-.6.2-1.3.4-2 .4-2.3 0-3.1-1.5-3.1-3.6v-5.9zM880.1 463.2h1.8v4.3l-.1 2.2c1-1 2.1-1.8 3.6-1.8 2.2 0 3.3 1.5 3.3 4.2v6.8h-1.8v-6.5c0-2-.6-2.9-2-2.9-1.1 0-1.8.6-2.9 1.7v7.7h-1.8v-15.7zM896.1 467.9c2.7 0 4.3 2 4.3 5 0 .4 0 .7-.1 1H893c.1 2.3 1.5 3.8 3.6 3.8 1 0 1.9-.3 2.7-.8l.6 1.2c-.9.6-2.1 1.1-3.5 1.1-2.9 0-5.1-2.1-5.1-5.6 0-3.6 2.3-5.7 4.8-5.7zm2.6 4.8c0-2.2-1-3.4-2.6-3.4-1.5 0-2.9 1.2-3.1 3.4h5.7zM911.3 467.9c1.2 0 2 .5 3 1.2l-.1-1.8v-4.1h1.8v15.7h-1.5l-.2-1.3h-.1c-.8.8-2 1.5-3.2 1.5-2.7 0-4.4-2-4.4-5.6 0-3.5 2.2-5.6 4.7-5.6zm.2 9.7c1 0 1.8-.5 2.7-1.5v-5.6c-.9-.8-1.7-1.1-2.6-1.1-1.7 0-3.1 1.7-3.1 4.1 0 2.5 1.1 4.1 3 4.1zM923.8 467.9c2.6 0 5 2 5 5.6 0 3.5-2.3 5.6-5 5.6s-5-2-5-5.6c0-3.6 2.4-5.6 5-5.6zm0 9.7c1.8 0 3.1-1.7 3.1-4.1 0-2.5-1.2-4.1-3.1-4.1-1.8 0-3.1 1.7-3.1 4.1 0 2.5 1.3 4.1 3.1 4.1zM935.9 467.9c1.4 0 2.4.6 3.1 1.3l-.9 1.2c-.6-.5-1.3-.9-2.2-.9-1.9 0-3.3 1.7-3.3 4.1 0 2.4 1.3 4.1 3.3 4.1 1 0 1.9-.5 2.5-1.1l.8 1.2c-1 .9-2.2 1.4-3.5 1.4-2.8 0-5-2-5-5.6.1-3.7 2.5-5.7 5.2-5.7zM941.4 468.1h1.8v6.5c0 2 .6 2.9 2 2.9 1.1 0 1.9-.6 2.9-1.8v-7.6h1.8v10.7h-1.5l-.2-1.7h-.1c-1 1.2-2 1.9-3.5 1.9-2.3 0-3.3-1.5-3.3-4.2v-6.7zM953.5 468.1h1.5l.2 1.5h.1c.9-1 2-1.8 3.3-1.8 1.6 0 2.5.8 2.9 2 1.1-1.2 2.2-2 3.5-2 2.2 0 3.3 1.5 3.3 4.2v6.8h-1.8v-6.5c0-2-.6-2.9-2-2.9-.8 0-1.7.5-2.7 1.7v7.7H960v-6.5c0-2-.6-2.9-2-2.9-.8 0-1.7.5-2.7 1.7v7.7h-1.8v-10.7zM975.8 467.9c2.7 0 4.3 2 4.3 5 0 .4 0 .7-.1 1h-7.2c.1 2.3 1.5 3.8 3.6 3.8 1 0 1.9-.3 2.7-.8l.6 1.2c-.9.6-2.1 1.1-3.5 1.1-2.9 0-5.1-2.1-5.1-5.6-.1-3.6 2.2-5.7 4.7-5.7zm2.7 4.8c0-2.2-1-3.4-2.6-3.4-1.5 0-2.9 1.2-3.1 3.4h5.7zM982.7 468.1h1.5l.2 1.5h.1c1-1 2.1-1.8 3.6-1.8 2.2 0 3.3 1.5 3.3 4.2v6.8h-1.8v-6.5c0-2-.6-2.9-2-2.9-1.1 0-1.8.6-2.9 1.7v7.7h-1.8v-10.7zM995 469.6h-1.6v-1.4l1.7-.1.2-3h1.5v3h2.9v1.5h-2.9v5.9c0 1.3.4 2.1 1.7 2.1.4 0 .9-.2 1.2-.3l.4 1.4c-.6.2-1.3.4-2 .4-2.3 0-3.1-1.5-3.1-3.6v-5.9z"/></g><g><path class="st2" d="M623.6 445.2h-6.4l-1.3 5h-4.8l6.6-20.9h5.6l6.6 20.9h-5l-1.3-5zm-.9-3.7l-.5-1.9c-.6-2.1-1.1-4.5-1.7-6.7h-.1c-.5 2.2-1.1 4.6-1.6 6.7l-.5 1.9h4.4zM639.1 433.9c2 0 3.6.7 4.6 1.8l-2.1 2.9c-.8-.6-1.5-.9-2.2-.9-2.3 0-3.7 1.8-3.7 4.5s1.5 4.5 3.6 4.5c1.2 0 2.1-.5 2.8-1.2l1.9 3c-1.5 1.3-3.6 2-5.3 2-4.4 0-7.8-3-7.8-8.3s3.8-8.3 8.2-8.3zM654 433.9c2 0 3.6.7 4.6 1.8l-2.1 2.9c-.8-.6-1.5-.9-2.2-.9-2.3 0-3.7 1.8-3.7 4.5s1.5 4.5 3.6 4.5c1.2 0 2.1-.5 2.8-1.2l1.9 3c-1.5 1.3-3.6 2-5.3 2-4.4 0-7.8-3-7.8-8.3s3.8-8.3 8.2-8.3zM668.2 433.9c4.5 0 6.8 3.3 6.8 7.6 0 .8-.1 1.6-.2 2h-9.5c.4 2.4 2 3.5 4.1 3.5 1.2 0 2.3-.4 3.4-1.1l1.6 2.8c-1.6 1.1-3.7 1.8-5.6 1.8-4.5 0-8-3.1-8-8.3-.1-5.1 3.6-8.3 7.4-8.3zm2.7 6.7c0-1.8-.8-3.1-2.7-3.1-1.5 0-2.8 1-3.1 3.1h5.8zM678.9 445.4c1.4 1.1 2.8 1.7 4.1 1.7 1.4 0 2-.5 2-1.3 0-1.1-1.6-1.5-3.2-2.2-1.9-.7-4.2-2-4.2-4.7 0-2.9 2.4-5 6.1-5 2.4 0 4.2 1 5.6 2l-2.1 2.8c-1.2-.8-2.2-1.3-3.4-1.3-1.2 0-1.8.4-1.8 1.2 0 1 1.5 1.4 3.1 2 2 .7 4.3 1.9 4.3 4.8s-2.3 5.1-6.5 5.1c-2.1 0-4.5-.9-6.1-2.2l2.1-2.9zM693.1 445.4c1.4 1.1 2.8 1.7 4.1 1.7 1.4 0 2-.5 2-1.3 0-1.1-1.6-1.5-3.2-2.2-1.9-.7-4.2-2-4.2-4.7 0-2.9 2.4-5 6.1-5 2.4 0 4.2 1 5.6 2l-2.1 2.8c-1.2-.8-2.2-1.3-3.4-1.3-1.2 0-1.8.4-1.8 1.2 0 1 1.5 1.4 3.1 2 2 .7 4.3 1.9 4.3 4.8s-2.3 5.1-6.5 5.1c-2.1 0-4.5-.9-6.1-2.2l2.1-2.9zM706.2 429.5c0-1.4 1.2-2.4 2.7-2.4 1.6 0 2.7 1 2.7 2.4s-1.1 2.5-2.7 2.5-2.7-1.1-2.7-2.5zm.4 4.8h4.7v15.9h-4.7v-15.9zM715.4 427.7h4.7v5.5l-.1 2.4c1.2-1.1 2.7-1.8 4.2-1.8 3.8 0 6.2 3.2 6.2 8 0 5.5-3.3 8.6-6.7 8.6-1.4 0-2.9-.7-4.1-2h-.1l-.4 1.7h-3.7v-22.4zm7.2 19c1.6 0 2.9-1.4 2.9-4.7 0-2.8-.9-4.3-2.8-4.3-1 0-1.8.4-2.7 1.4v6.5c.9.8 1.8 1.1 2.6 1.1zM733.3 429.5c0-1.4 1.2-2.4 2.7-2.4 1.6 0 2.7 1 2.7 2.4s-1.1 2.5-2.7 2.5c-1.5 0-2.7-1.1-2.7-2.5zm.4 4.8h4.7v15.9h-4.7v-15.9zM742.6 427.7h4.7v17.7c0 1 .4 1.3.8 1.3.2 0 .3 0 .6-.1l.6 3.5c-.5.2-1.3.4-2.4.4-3.2 0-4.3-2.1-4.3-5.3v-17.5zM751.3 429.5c0-1.4 1.2-2.4 2.7-2.4 1.6 0 2.7 1 2.7 2.4s-1.1 2.5-2.7 2.5c-1.5 0-2.7-1.1-2.7-2.5zm.4 4.8h4.7v15.9h-4.7v-15.9zM761.2 438H759v-3.5l2.4-.2.5-4.2h3.9v4.2h3.8v3.7h-3.8v6.4c0 1.8.8 2.5 2 2.5.5 0 1.1-.2 1.5-.3l.7 3.4c-.8.3-2 .6-3.5.6-3.9 0-5.5-2.5-5.5-6.1V438zM774.2 452.7c1.6 0 2.4-.8 2.8-2.1l.2-.8-6.1-15.5h4.7l2.3 6.8c.4 1.4.8 2.9 1.2 4.5h.1c.4-1.5.7-3 1.1-4.5l1.9-6.8h4.5l-5.5 16c-1.5 4-3.2 6-6.9 6-1 0-1.6-.1-2.2-.3l.8-3.6c.3.1.8.3 1.1.3zM800.6 433.3h-5.8v-4H811v4h-5.7v16.9h-4.7v-16.9zM813.9 434.3h3.8l.3 2.8h.1c1.2-2.1 2.9-3.2 4.5-3.2.9 0 1.4.1 1.9.3l-.8 4.1c-.6-.2-1.1-.3-1.7-.3-1.2 0-2.7.8-3.5 2.9v9.2h-4.7v-15.8zM833.2 433.9c4.5 0 6.8 3.3 6.8 7.6 0 .8-.1 1.6-.2 2h-9.5c.4 2.4 2 3.5 4.1 3.5 1.2 0 2.3-.4 3.4-1.1l1.6 2.8c-1.6 1.1-3.7 1.8-5.6 1.8-4.5 0-8-3.1-8-8.3-.1-5.1 3.6-8.3 7.4-8.3zm2.7 6.7c0-1.8-.8-3.1-2.7-3.1-1.5 0-2.8 1-3.1 3.1h5.8zM849.8 433.9c4.5 0 6.8 3.3 6.8 7.6 0 .8-.1 1.6-.2 2h-9.5c.4 2.4 2 3.5 4.1 3.5 1.2 0 2.3-.4 3.4-1.1l1.6 2.8c-1.6 1.1-3.7 1.8-5.6 1.8-4.5 0-8-3.1-8-8.3-.1-5.1 3.6-8.3 7.4-8.3zm2.7 6.7c0-1.8-.8-3.1-2.7-3.1-1.5 0-2.8 1-3.1 3.1h5.8z"/></g><g><path class="st12" d="M771.5 171.4l55.9 52.2"/><path class="st13" d="M767 168.6l-44.9 57.5M722.1 226.1L691 281.2M722.1 226.1l22.4 55.1M830.1 223.6l45.8 60.1M830.1 223.6l-11 68.5M685.5 283.7l-41.2 57.9M689.6 283.7l21.5 62.9M875.9 286.7l-11 68.2M875.9 281.2l38.4 62.9M799.3 197.4l-13.1 75.4M819.1 294.7l-41.2 46.9"/><g><circle class="st1" cx="767" cy="171.4" r="11"/><circle class="st1" cx="745.6" cy="283.7" r="11"/><circle class="st1" cx="722.1" cy="226.1" r="11"/><circle class="st1" cx="830.1" cy="226.1" r="11"/><ellipse transform="rotate(-8.53 644.503 341.695)" class="st1" cx="644.3" cy="341.6" rx="11" ry="11"/><ellipse transform="rotate(-8.53 712.84 346.728)" class="st1" cx="712.6" cy="346.6" rx="11" ry="11"/><circle class="st1" cx="689.6" cy="283.7" r="11"/><circle class="st1" cx="875.9" cy="283.7" r="11"/><circle class="st1" cx="912.2" cy="341.6" r="11"/><circle class="st1" cx="786" cy="270.9" r="11"/><circle class="st1" cx="864.9" cy="354.9" r="11"/><circle class="st1" cx="777.9" cy="341.6" r="11"/><circle class="st1" cx="819.1" cy="294.7" r="11"/></g><g><path class="st3" d="M943.7 138.9c5.5 0 10 4.5 10 10v242c0 5.5-4.5 10-10 10H623.9c-5.5 0-10-4.5-10-10v-242c0-5.5 4.5-10 10-10h319.8m0-2H623.9c-6.6 0-12 5.4-12 12v242c0 6.6 5.4 12 12 12h319.8c6.6 0 12-5.4 12-12v-242c0-6.6-5.4-12-12-12z"/></g></g><g><path class="st14" d="M355.7 260.1c58.3 59 135.8 80.5 171.1 45.7M359.7 282.1l-5.2-23.3 22 5.7M577.6 254.9l5.2 23.3-22-5.7M394.4 226.2c38.6-38.1 122.4-15.6 187.5 50.4"/></g><g><path class="st2" d="M331.9 676.5v228c0 6.6-5.4 12-12 12h-252c-6.6 0-12-5.4-12-12v-228h276z"/><path class="st3" d="M331.9 662.5v14h-276v-14c0-6.6 5.4-12 12-12h252c6.6 0 12 5.4 12 12z"/><circle class="st4" cx="72.1" cy="663.5" r="3.5"/><circle class="st5" cx="82.1" cy="663.5" r="3.5"/><circle class="st6" cx="92.9" cy="663.5" r="3.5"/><path class="st7" d="M237.3 662.1h.8l.6 2.5.3 1.2.3-1.2.7-2.5h.7l.7 2.5.3 1.2.3-1.2.6-2.5h.7l-1.2 4.4h-.9l-.6-2.3c-.1-.4-.2-.8-.3-1.3-.1.4-.2.9-.3 1.3l-.6 2.3h-.9l-1.2-4.4zM243.8 662.1h.8l.6 2.5.3 1.2.3-1.2.7-2.5h.7l.7 2.5.3 1.2.3-1.2.6-2.5h.7l-1.2 4.4h-.9l-.6-2.3c-.1-.4-.2-.8-.3-1.3-.1.4-.2.9-.3 1.3l-.6 2.3h-.9l-1.2-4.4zM250.2 662.1h.8l.6 2.5.3 1.2.3-1.2.7-2.5h.7l.7 2.5.3 1.2.3-1.2.6-2.5h.7l-1.2 4.4h-.9l-.6-2.3c-.1-.4-.2-.8-.3-1.3-.1.4-.2.9-.3 1.3l-.6 2.3h-.9l-1.2-4.4zM257.6 665.4c.3 0 .5.2.5.6 0 .3-.2.6-.5.6s-.5-.2-.5-.6c0-.3.2-.6.5-.6zM262 663.7c0-.6-.2-1.1-.9-1.1-.5 0-1 .2-1.3.5l-.3-.5c.4-.3 1-.6 1.7-.6 1.1 0 1.5.7 1.5 1.8v2.7h-.6l-.1-.5c-.4.3-.9.6-1.4.6-.7 0-1.3-.5-1.3-1.2 0-1 .8-1.5 2.7-1.7zm-1.2 2.3c.4 0 .8-.2 1.2-.6v-1.2c-1.5.2-2 .5-2 1.1 0 .5.3.7.8.7zM264.1 665.9h1.3v-4.2h-1v-.5c.5-.1.9-.2 1.2-.4h.6v5.1h1.2v.6h-3.2v-.6zM268.5 665.9h1.3v-4.2h-1v-.5c.5-.1.9-.2 1.2-.4h.6v5.1h1.2v.6h-3.2v-.6zM273.1 667.7c.5 0 .8-.4 1-.9l.1-.3-1.8-4.4h.8l.9 2.4c.1.4.3.8.4 1.2.1-.4.3-.8.4-1.2l.8-2.4h.7l-1.6 4.7c-.3.9-.8 1.5-1.6 1.5-.2 0-.4 0-.5-.1l.1-.6c0 .1.2.1.3.1zM277.2 662.1h.6l.1.6c.4-.4.8-.7 1.4-.7.7 0 1 .3 1.2.8.5-.5.9-.8 1.4-.8.9 0 1.3.6 1.3 1.7v2.8h-.7v-2.7c0-.8-.3-1.2-.8-1.2-.3 0-.7.2-1.1.7v3.2h-.7v-2.7c0-.8-.3-1.2-.8-1.2-.3 0-.7.2-1.1.7v3.2h-.7v-4.4zM287.2 663.7c0-.6-.2-1.1-.9-1.1-.5 0-1 .2-1.3.5l-.3-.5c.4-.3 1-.6 1.7-.6 1.1 0 1.5.7 1.5 1.8v2.7h-.6l-.1-.5c-.4.3-.9.6-1.4.6-.7 0-1.3-.5-1.3-1.2 0-1 .8-1.5 2.7-1.7zM286 666c.4 0 .8-.2 1.2-.6v-1.2c-1.5.2-2 .5-2 1.1 0 .5.3.7.8.7zM289.4 662.7h-.6v-.6h.7l.1-1.2h.6v1.2h1.2v.6h-1.2v2.4c0 .5.2.8.7.8.2 0 .4-.1.5-.1l.1.6c-.2.1-.5.2-.8.2-.9 0-1.3-.6-1.3-1.5v-2.4zM292.5 662.7h-.6v-.6h.7l.1-1.2h.6v1.2h1.2v.6h-1.2v2.4c0 .5.2.8.7.8.2 0 .4-.1.5-.1l.1.6c-.2.1-.5.2-.8.2-.9 0-1.3-.6-1.3-1.5v-2.4zM297 662c1.1 0 1.7.8 1.7 2.1v.4h-3c.1.9.6 1.5 1.5 1.5.4 0 .8-.1 1.1-.3l.3.5c-.4.2-.8.5-1.4.5-1.2 0-2.1-.9-2.1-2.3s.9-2.4 1.9-2.4zm1.1 2c0-.9-.4-1.4-1.1-1.4-.6 0-1.2.5-1.3 1.4h2.4zM299.8 662.1h.6l.1.8c.3-.5.7-.9 1.2-.9.2 0 .3 0 .5.1l-.1.6c-.1 0-.2-.1-.4-.1-.4 0-.8.3-1.1 1v2.8h-.7v-4.3zM302.9 665.5c.4.3.8.5 1.3.5.6 0 .9-.3.9-.7 0-.5-.5-.6-1-.8-.6-.2-1.3-.5-1.3-1.3 0-.7.6-1.2 1.5-1.2.5 0 1 .2 1.4.5l-.4.5c-.3-.2-.6-.4-1-.4-.5 0-.8.3-.8.6 0 .4.5.6 1 .8.6.2 1.3.5 1.3 1.3 0 .7-.6 1.3-1.6 1.3-.6 0-1.2-.3-1.6-.6l.3-.5zM307.1 665.4c.3 0 .5.2.5.6 0 .3-.2.6-.5.6s-.5-.2-.5-.6c0-.3.2-.6.5-.6zM310.8 662c.6 0 1 .2 1.3.5l-.4.5c-.3-.2-.5-.4-.9-.4-.8 0-1.4.7-1.4 1.7s.5 1.7 1.4 1.7c.4 0 .8-.2 1-.4l.3.5c-.4.4-.9.6-1.4.6-1.2 0-2.1-.8-2.1-2.3.1-1.6 1-2.4 2.2-2.4zM314.8 662c1.1 0 2 .8 2 2.3 0 1.4-1 2.3-2 2.3-1.1 0-2-.8-2-2.3 0-1.5.9-2.3 2-2.3zm0 4c.8 0 1.3-.7 1.3-1.7s-.5-1.7-1.3-1.7c-.7 0-1.3.7-1.3 1.7s.5 1.7 1.3 1.7zM318 662.1h.6l.1.6c.4-.4.8-.7 1.4-.7.7 0 1 .3 1.2.8.5-.5.9-.8 1.4-.8.9 0 1.3.6 1.3 1.7v2.8h-.7v-2.7c0-.8-.3-1.2-.8-1.2-.3 0-.7.2-1.1.7v3.2h-.7v-2.7c0-.8-.3-1.2-.8-1.2-.3 0-.7.2-1.1.7v3.2h-.8v-4.4z"/><path class="st8" d="M68.6 685.5h107.2v5.5H68.6zM68.6 904h107.2v5.5H68.6z"/><path class="st9" d="M77.1 697.5h107.2v5.5H77.1z"/><path class="st10" d="M93 721.5h107.2v5.5H93zM93 781.7h107.2v5.5H93z"/><path class="st8" d="M112.3 793.7h155.6v5.5H112.3zM112.3 805.6h155.6v5.5H112.3zM112.3 817.8h155.6v5.5H112.3zM112.3 830.1h155.6v5.5H112.3zM112.3 844.2h155.6v5.5H112.3zM98.1 733.5h155.6v5.5H98.1zM98.1 745.5h155.6v5.5H98.1zM98.1 757.6h155.6v5.5H98.1zM98.1 769.6h155.6v5.5H98.1z"/><path class="st10" d="M93 862.5h107.2v5.5H93z"/><path class="st11" d="M85.1 709.5h138.8v5.5H85.1zM85.1 877h138.8v5.5H85.1z"/><path class="st9" d="M77.1 890.5h107.2v5.5H77.1z"/><g><path class="st2" d="M55 943.9h5.9c6.4 0 10.5 3.2 10.5 10.3 0 7.2-4.1 10.5-10.2 10.5H55v-20.8zm5.7 17c3.5 0 5.9-1.7 5.9-6.7s-2.4-6.5-5.9-6.5h-.9v13.2h.9zM74.3 954.2c0-6.8 3.9-10.7 9.5-10.7s9.5 3.9 9.5 10.7c0 6.8-3.8 10.9-9.5 10.9-5.6 0-9.5-4.1-9.5-10.9zm14.1 0c0-4.2-1.8-6.7-4.6-6.7s-4.6 2.5-4.6 6.7 1.8 6.8 4.6 6.8 4.6-2.6 4.6-6.8zM97.2 943.9h5l3.5 9.4 1.2 3.6h.1l1.2-3.6 3.4-9.4h5v20.9h-4.4v-7.6c0-2 .4-5.1.6-7.1h-.1l-1.7 4.8-3.2 8.1h-1.9l-3.2-8.1-1.7-4.9h-.1c.2 2 .6 5.1.6 7.1v7.6h-4.4v-20.8z"/></g><g><path class="st2" d="M55.1 979.2h1.8v6.1h6.7v-6.1h1.8v14.4h-1.8v-6.8h-6.7v6.8h-1.8v-14.4zM72.3 980.8h-4.4v-1.5h10.6v1.5h-4.4v12.9h-1.8v-12.9zM81 979.2h2.2L86 987l1 2.9h.1l1-2.9 2.8-7.7H93v14.4h-1.7v-7.9c0-1.3.2-3 .2-4.3h-.1l-1.1 3.2-2.8 7.5h-1.1l-2.8-7.5-1.1-3.2h-.1c.1 1.3.2 3 .2 4.3v7.9H81v-14.5zM96.9 979.2h1.8v12.9h6.3v1.6h-8.1v-14.5zM112 990.5c1 1.1 2.5 1.8 4 1.8 1.9 0 3-.9 3-2.4s-1.1-1.9-2.4-2.6l-2.1-.9c-1.3-.6-2.9-1.6-2.9-3.7 0-2.2 1.9-3.8 4.6-3.8 1.7 0 3.2.7 4.2 1.8l-1 1.2c-.9-.8-2-1.4-3.3-1.4-1.6 0-2.7.8-2.7 2.1 0 1.4 1.3 1.9 2.4 2.4l2.1.9c1.7.7 3 1.7 3 3.9 0 2.3-1.9 4.1-4.9 4.1-2 0-3.8-.8-5-2.1l1-1.3zM127.6 982.7c2.6 0 5 2 5 5.6 0 3.5-2.3 5.6-5 5.6s-5-2-5-5.6c0-3.5 2.4-5.6 5-5.6zm0 9.7c1.8 0 3.1-1.7 3.1-4.1 0-2.5-1.2-4.1-3.1-4.1-1.8 0-3.1 1.7-3.1 4.1 0 2.5 1.3 4.1 3.1 4.1zM135.2 983h1.8v6.5c0 2 .6 2.9 2 2.9 1.1 0 1.9-.6 2.9-1.8V983h1.8v10.7h-1.5l-.2-1.7c-1 1.2-2 1.9-3.5 1.9-2.3 0-3.3-1.5-3.3-4.2V983zM147.3 983h1.5l.2 1.9h.1c.7-1.3 1.8-2.2 3-2.2.5 0 .8.1 1.1.2l-.4 1.6c-.4-.1-.6-.2-1-.2-.9 0-2 .7-2.7 2.5v6.9h-1.8V983zM159.3 982.7c1.4 0 2.4.6 3.1 1.3l-.9 1.2c-.6-.5-1.3-.9-2.2-.9-1.9 0-3.3 1.7-3.3 4.1 0 2.4 1.3 4.1 3.3 4.1 1 0 1.9-.5 2.5-1.1l.8 1.2c-1 .9-2.2 1.4-3.5 1.4-2.8 0-5-2-5-5.6.1-3.6 2.5-5.7 5.2-5.7zM169 982.7c2.7 0 4.3 2 4.3 5 0 .4 0 .7-.1 1H166c.1 2.3 1.5 3.8 3.6 3.8 1 0 1.9-.3 2.7-.8l.6 1.2c-.9.6-2.1 1.1-3.5 1.1-2.9 0-5.1-2.1-5.1-5.6-.1-3.5 2.2-5.7 4.7-5.7zm2.7 4.8c0-2.2-1-3.4-2.6-3.4-1.5 0-2.9 1.2-3.1 3.4h5.7z"/></g><g><path class="st2" d="M613.8 977.2h1.8v6.1h6.7v-6.1h1.8v14.4h-1.8v-6.8h-6.7v6.8h-1.8v-14.4zM632.1 980.7c2.6 0 5 2 5 5.6 0 3.5-2.3 5.6-5 5.6-2.6 0-5-2-5-5.6 0-3.6 2.3-5.6 5-5.6zm0 9.7c1.8 0 3.1-1.7 3.1-4.1 0-2.5-1.2-4.1-3.1-4.1-1.8 0-3.1 1.7-3.1 4.1 0 2.5 1.2 4.1 3.1 4.1zM638.6 981h1.8l1.6 6.2.6 3h.1c.2-1 .5-2 .7-3l1.7-6.2h1.8l1.7 6.2c.3 1 .5 2 .7 3h.1c.2-1 .4-2 .7-3l1.6-6.2h1.7l-2.9 10.7h-2.2l-1.5-5.7c-.3-1-.5-2-.7-3.1h-.1c-.2 1.1-.5 2.1-.7 3.1l-1.5 5.7h-2.1l-3.1-10.7zM660.1 976h1.8V982.2c1-.9 2.2-1.5 3.3-1.5 2.8 0 4.2 2.1 4.2 5.4 0 3.7-2.2 5.8-4.6 5.8-1 0-2.1-.5-3.1-1.3h-.1l-.2 1.1h-1.5V976zm4.4 14.4c1.8 0 3.1-1.6 3.1-4.2 0-2.4-.8-3.9-2.8-3.9-.9 0-1.8.5-2.9 1.5v5.6c.9.7 1.9 1 2.6 1zM672.3 981h1.5l.2 1.9h.1c.7-1.3 1.8-2.2 3-2.2.5 0 .8.1 1.1.2l-.4 1.6c-.4-.1-.6-.2-1-.2-.9 0-2 .7-2.7 2.5v6.9h-1.8V981zM684.1 980.7c2.6 0 5 2 5 5.6 0 3.5-2.3 5.6-5 5.6-2.6 0-5-2-5-5.6 0-3.6 2.4-5.6 5-5.6zm0 9.7c1.8 0 3.1-1.7 3.1-4.1 0-2.5-1.2-4.1-3.1-4.1-1.8 0-3.1 1.7-3.1 4.1 0 2.5 1.2 4.1 3.1 4.1zM690.6 981h1.8l1.6 6.2.6 3h.1c.2-1 .5-2 .7-3l1.7-6.2h1.8l1.7 6.2c.3 1 .5 2 .7 3h.1c.2-1 .4-2 .7-3l1.6-6.2h1.7l-2.9 10.7h-2.2l-1.5-5.7c-.3-1-.5-2-.7-3.1h-.1c-.2 1.1-.5 2.1-.7 3.1l-1.5 5.7h-2.1l-3.1-10.7zM707.3 989.2c.9.7 1.9 1.3 3.1 1.3 1.4 0 2.1-.7 2.1-1.7 0-1.1-1.3-1.6-2.4-2-1.5-.5-3.2-1.3-3.2-3.1 0-1.7 1.4-3 3.7-3 1.3 0 2.5.6 3.3 1.2l-.9 1.1c-.7-.5-1.5-.9-2.4-.9-1.3 0-2 .7-2 1.5 0 1 1.2 1.4 2.4 1.8 1.5.6 3.3 1.2 3.3 3.2 0 1.7-1.4 3.2-3.9 3.2-1.5 0-3-.6-4-1.5l.9-1.1zM720.9 980.7c2.7 0 4.3 2 4.3 5 0 .4 0 .7-.1 1h-7.2c.1 2.3 1.5 3.8 3.6 3.8 1 0 1.9-.3 2.7-.8l.6 1.2c-.9.6-2.1 1.1-3.5 1.1-2.9 0-5.1-2.1-5.1-5.6-.1-3.6 2.2-5.7 4.7-5.7zm2.6 4.8c0-2.2-1-3.4-2.6-3.4-1.5 0-2.9 1.2-3.1 3.4h5.7zM727.8 981h1.5l.2 1.9h.1c.7-1.3 1.8-2.2 3-2.2.5 0 .8.1 1.1.2l-.4 1.6c-.4-.1-.6-.2-1-.2-.9 0-2 .7-2.7 2.5v6.9h-1.8V981zM735.1 989.2c.9.7 1.9 1.3 3.1 1.3 1.4 0 2.1-.7 2.1-1.7 0-1.1-1.3-1.6-2.4-2-1.5-.5-3.2-1.3-3.2-3.1 0-1.7 1.4-3 3.7-3 1.3 0 2.5.6 3.3 1.2l-.9 1.1c-.7-.5-1.5-.9-2.4-.9-1.3 0-2 .7-2 1.5 0 1 1.2 1.4 2.4 1.8 1.5.6 3.3 1.2 3.3 3.2 0 1.7-1.4 3.2-3.9 3.2-1.5 0-3-.6-4-1.5l.9-1.1zM755.1 984.9c0-1.4-.5-2.7-2.2-2.7-1.3 0-2.4.6-3.2 1.1l-.7-1.3c1-.6 2.5-1.4 4.2-1.4 2.6 0 3.7 1.7 3.7 4.4v6.6h-1.5l-.2-1.3c-1 .8-2.2 1.5-3.5 1.5-1.8 0-3.1-1.1-3.1-3-.1-2.2 2-3.4 6.5-3.9zm-2.9 5.6c1 0 1.9-.5 2.9-1.4v-3c-3.6.4-4.8 1.3-4.8 2.7 0 1.2.8 1.7 1.9 1.7zM760.3 981h1.5l.2 1.5h.1c1-1 2.1-1.8 3.6-1.8 2.2 0 3.3 1.5 3.3 4.2v6.8h-1.8v-6.5c0-2-.6-2.9-2-2.9-1.1 0-1.8.6-2.9 1.7v7.7h-1.8V981zM776.2 980.7c1.2 0 2 .5 3 1.2l-.1-1.8V976h1.8v15.7h-1.5l-.2-1.3h-.1c-.8.8-2 1.5-3.2 1.5-2.7 0-4.4-2-4.4-5.6.1-3.4 2.3-5.6 4.7-5.6zm.2 9.7c1 0 1.8-.5 2.7-1.5v-5.6c-.9-.8-1.7-1.1-2.6-1.1-1.7 0-3.1 1.7-3.1 4.1.1 2.6 1.1 4.1 3 4.1zM795.7 987.3h-5.3l-1.4 4.4h-1.9l4.9-14.4h2.1l4.9 14.4h-1.9l-1.4-4.4zm-.4-1.5l-.7-2.2c-.5-1.6-1-3.2-1.4-4.9h-.1c-.5 1.7-.9 3.3-1.4 4.9l-.7 2.2h4.3zM804 978.8h-4.4v-1.5h10.6v1.5h-4.4v12.9H804v-12.9zM812.2 989.2c.9.7 1.9 1.3 3.1 1.3 1.4 0 2.1-.7 2.1-1.7 0-1.1-1.3-1.6-2.4-2-1.5-.5-3.2-1.3-3.2-3.1 0-1.7 1.4-3 3.7-3 1.3 0 2.5.6 3.3 1.2l-.9 1.1c-.7-.5-1.5-.9-2.4-.9-1.3 0-2 .7-2 1.5 0 1 1.2 1.4 2.4 1.8 1.5.6 3.3 1.2 3.3 3.2 0 1.7-1.4 3.2-3.9 3.2-1.5 0-3-.6-4-1.5l.9-1.1zM826.2 981h1.5l.2 1.9h.1c.7-1.3 1.8-2.2 3-2.2.5 0 .8.1 1.1.2l-.4 1.6c-.4-.1-.6-.2-1-.2-.9 0-2 .7-2.7 2.5v6.9h-1.8V981zM837.8 980.7c2.7 0 4.3 2 4.3 5 0 .4 0 .7-.1 1h-7.2c.1 2.3 1.5 3.8 3.6 3.8 1 0 1.9-.3 2.7-.8l.6 1.2c-.9.6-2.1 1.1-3.5 1.1-2.9 0-5.1-2.1-5.1-5.6-.1-3.6 2.3-5.7 4.7-5.7zm2.7 4.8c0-2.2-1-3.4-2.6-3.4-1.5 0-2.9 1.2-3.1 3.4h5.7zM850.8 984.9c0-1.4-.5-2.7-2.2-2.7-1.3 0-2.4.6-3.2 1.1l-.7-1.3c1-.6 2.5-1.4 4.2-1.4 2.6 0 3.7 1.7 3.7 4.4v6.6h-1.5l-.2-1.3c-1 .8-2.2 1.5-3.5 1.5-1.8 0-3.1-1.1-3.1-3-.1-2.2 1.9-3.4 6.5-3.9zm-2.9 5.6c1 0 1.9-.5 2.9-1.4v-3c-3.6.4-4.8 1.3-4.8 2.7 0 1.2.8 1.7 1.9 1.7zM859.9 980.7c1.2 0 2 .5 3 1.2l-.1-1.8V976h1.8v15.7h-1.5l-.2-1.3h-.1c-.8.8-2 1.5-3.2 1.5-2.7 0-4.4-2-4.4-5.6 0-3.4 2.2-5.6 4.7-5.6zm.1 9.7c1 0 1.8-.5 2.7-1.5v-5.6c-.9-.8-1.7-1.1-2.6-1.1-1.7 0-3.1 1.7-3.1 4.1.1 2.6 1.2 4.1 3 4.1zM873 982.4h-1.6V981l1.7-.1.2-3h1.5v3h2.9v1.5h-2.9v5.9c0 1.3.4 2.1 1.7 2.1.4 0 .9-.2 1.2-.3l.4 1.4c-.6.2-1.3.4-2 .4-2.3 0-3.1-1.5-3.1-3.6v-5.9zM880.1 976h1.8v4.3l-.1 2.2c1-1 2.1-1.8 3.6-1.8 2.2 0 3.3 1.5 3.3 4.2v6.8h-1.8v-6.5c0-2-.6-2.9-2-2.9-1.1 0-1.8.6-2.9 1.7v7.7h-1.8V976zM896.1 980.7c2.7 0 4.3 2 4.3 5 0 .4 0 .7-.1 1H893c.1 2.3 1.5 3.8 3.6 3.8 1 0 1.9-.3 2.7-.8l.6 1.2c-.9.6-2.1 1.1-3.5 1.1-2.9 0-5.1-2.1-5.1-5.6 0-3.6 2.3-5.7 4.8-5.7zm2.6 4.8c0-2.2-1-3.4-2.6-3.4-1.5 0-2.9 1.2-3.1 3.4h5.7z"/></g><g><path class="st2" d="M623.6 958h-6.4l-1.3 5h-4.8l6.6-20.9h5.6l6.6 20.9h-5l-1.3-5zm-.9-3.7l-.5-1.9c-.6-2.1-1.1-4.5-1.7-6.7h-.1c-.5 2.2-1.1 4.6-1.6 6.7l-.5 1.9h4.4zM639.1 946.7c2 0 3.6.7 4.6 1.8l-2.1 2.9c-.8-.6-1.5-.9-2.2-.9-2.3 0-3.7 1.8-3.7 4.5s1.5 4.5 3.6 4.5c1.2 0 2.1-.5 2.8-1.2l1.9 3c-1.5 1.3-3.6 2-5.3 2-4.4 0-7.8-3-7.8-8.3s3.8-8.3 8.2-8.3zM654 946.7c2 0 3.6.7 4.6 1.8l-2.1 2.9c-.8-.6-1.5-.9-2.2-.9-2.3 0-3.7 1.8-3.7 4.5s1.5 4.5 3.6 4.5c1.2 0 2.1-.5 2.8-1.2l1.9 3c-1.5 1.3-3.6 2-5.3 2-4.4 0-7.8-3-7.8-8.3s3.8-8.3 8.2-8.3zM668.2 946.7c4.5 0 6.8 3.3 6.8 7.6 0 .8-.1 1.6-.2 2h-9.5c.4 2.4 2 3.5 4.1 3.5 1.2 0 2.3-.4 3.4-1.1l1.6 2.8c-1.6 1.1-3.7 1.8-5.6 1.8-4.5 0-8-3.1-8-8.3-.1-5.1 3.6-8.3 7.4-8.3zm2.7 6.7c0-1.8-.8-3.1-2.7-3.1-1.5 0-2.8 1-3.1 3.1h5.8zM678.9 958.2c1.4 1.1 2.8 1.7 4.1 1.7 1.4 0 2-.5 2-1.3 0-1.1-1.6-1.5-3.2-2.2-1.9-.7-4.2-2-4.2-4.7 0-2.9 2.4-5 6.1-5 2.4 0 4.2 1 5.6 2l-2.1 2.8c-1.2-.8-2.2-1.3-3.4-1.3-1.2 0-1.8.4-1.8 1.2 0 1 1.5 1.4 3.1 2 2 .7 4.3 1.9 4.3 4.8s-2.3 5.1-6.5 5.1c-2.1 0-4.5-.9-6.1-2.2l2.1-2.9zM693.1 958.2c1.4 1.1 2.8 1.7 4.1 1.7 1.4 0 2-.5 2-1.3 0-1.1-1.6-1.5-3.2-2.2-1.9-.7-4.2-2-4.2-4.7 0-2.9 2.4-5 6.1-5 2.4 0 4.2 1 5.6 2l-2.1 2.8c-1.2-.8-2.2-1.3-3.4-1.3-1.2 0-1.8.4-1.8 1.2 0 1 1.5 1.4 3.1 2 2 .7 4.3 1.9 4.3 4.8s-2.3 5.1-6.5 5.1c-2.1 0-4.5-.9-6.1-2.2l2.1-2.9zM706.2 942.3c0-1.4 1.2-2.4 2.7-2.4 1.6 0 2.7 1 2.7 2.4s-1.1 2.5-2.7 2.5-2.7-1.1-2.7-2.5zm.4 4.8h4.7V963h-4.7v-15.9zM715.4 940.5h4.7v5.5l-.1 2.4c1.2-1.1 2.7-1.8 4.2-1.8 3.8 0 6.2 3.2 6.2 8 0 5.5-3.3 8.6-6.7 8.6-1.4 0-2.9-.7-4.1-2h-.1l-.4 1.7h-3.7v-22.4zm7.2 19c1.6 0 2.9-1.4 2.9-4.7 0-2.8-.9-4.3-2.8-4.3-1 0-1.8.4-2.7 1.4v6.5c.9.9 1.8 1.1 2.6 1.1zM733.3 942.3c0-1.4 1.2-2.4 2.7-2.4 1.6 0 2.7 1 2.7 2.4s-1.1 2.5-2.7 2.5c-1.5 0-2.7-1.1-2.7-2.5zm.4 4.8h4.7V963h-4.7v-15.9zM742.6 940.5h4.7v17.7c0 1 .4 1.3.8 1.3.2 0 .3 0 .6-.1l.6 3.5c-.5.2-1.3.4-2.4.4-3.2 0-4.3-2.1-4.3-5.3v-17.5zM751.3 942.3c0-1.4 1.2-2.4 2.7-2.4 1.6 0 2.7 1 2.7 2.4s-1.1 2.5-2.7 2.5c-1.5 0-2.7-1.1-2.7-2.5zm.4 4.8h4.7V963h-4.7v-15.9zM761.2 950.8H759v-3.5l2.4-.2.5-4.2h3.9v4.2h3.8v3.7h-3.8v6.4c0 1.8.8 2.5 2 2.5.5 0 1.1-.2 1.5-.3l.7 3.4c-.8.3-2 .6-3.5.6-3.9 0-5.5-2.5-5.5-6.1v-6.5zM774.2 965.5c1.6 0 2.4-.8 2.8-2.1l.2-.8-6.1-15.5h4.7l2.3 6.8c.4 1.4.8 2.9 1.2 4.5h.1c.4-1.5.7-3 1.1-4.5l1.9-6.8h4.5l-5.5 16c-1.5 4-3.2 6-6.9 6-1 0-1.6-.1-2.2-.3l.8-3.6c.3.1.8.3 1.1.3zM800.6 946.1h-5.8v-4H811v4h-5.7V963h-4.7v-16.9zM813.9 947.1h3.8l.3 2.8h.1c1.2-2.1 2.9-3.2 4.5-3.2.9 0 1.4.1 1.9.3l-.8 4.1c-.6-.2-1.1-.3-1.7-.3-1.2 0-2.7.8-3.5 2.9v9.2h-4.7v-15.8zM833.2 946.7c4.5 0 6.8 3.3 6.8 7.6 0 .8-.1 1.6-.2 2h-9.5c.4 2.4 2 3.5 4.1 3.5 1.2 0 2.3-.4 3.4-1.1l1.6 2.8c-1.6 1.1-3.7 1.8-5.6 1.8-4.5 0-8-3.1-8-8.3-.1-5.1 3.6-8.3 7.4-8.3zm2.7 6.7c0-1.8-.8-3.1-2.7-3.1-1.5 0-2.8 1-3.1 3.1h5.8zM849.8 946.7c4.5 0 6.8 3.3 6.8 7.6 0 .8-.1 1.6-.2 2h-9.5c.4 2.4 2 3.5 4.1 3.5 1.2 0 2.3-.4 3.4-1.1l1.6 2.8c-1.6 1.1-3.7 1.8-5.6 1.8-4.5 0-8-3.1-8-8.3-.1-5.1 3.6-8.3 7.4-8.3zm2.7 6.7c0-1.8-.8-3.1-2.7-3.1-1.5 0-2.8 1-3.1 3.1h5.8z"/></g><g><path class="st3" d="M943.7 651.7c5.5 0 10 4.5 10 10v242c0 5.5-4.5 10-10 10H623.9c-5.5 0-10-4.5-10-10v-242c0-5.5 4.5-10 10-10h319.8m0-2H623.9c-6.6 0-12 5.4-12 12v242c0 6.6 5.4 12 12 12h319.8c6.6 0 12-5.4 12-12v-242c0-6.6-5.4-12-12-12z"/></g><g><path class="st14" d="M355.7 777.7c58.3 59 135.8 80.5 171.1 45.7M359.7 799.7l-5.2-23.3 22 5.7M577.6 772.5l5.2 23.3-22-5.7M394.4 743.8c38.6-38.1 122.4-15.6 187.5 50.4"/></g><path class="st13" d="M831.3 817.7l3.2 71.4"/><g><path class="st12" d="M771.5 684.2l55.9 52.2"/><path class="st13" d="M767 681.5l-44.9 57.4M722.1 738.9L691 794"/><path class="st15" d="M722.1 738.9l.6 1.4"/><path class="st16" d="M723.8 743l19.6 48.3"/><path class="st15" d="M744 792.6l.5 1.4"/><path class="st13" d="M830.1 736.4l45.8 60.2M830.1 736.4v71.1M685.5 796.6l-41.2 57.8"/><path class="st15" d="M689.6 796.6l.5 1.4"/><path class="st17" d="M691 800.8l19.2 55.8"/><path class="st15" d="M710.6 858l.5 1.5"/><path class="st13" d="M875.9 799.5l-11 68.2M875.9 794l38.4 63M799.3 710.2l-13.1 75.4"/><g><path class="st15" d="M831.3 817.7l-1 1.1"/><path class="st18" d="M828.3 821.2l-36.1 41.1"/><path class="st15" d="M791.2 863.5l-1 1.1"/></g><g><circle class="st1" cx="767" cy="684.2" r="11"/><circle class="st19" cx="744.5" cy="794.7" r="11"/><circle class="st1" cx="722.1" cy="738.9" r="11"/><circle class="st1" cx="830.1" cy="738.9" r="11"/><ellipse transform="rotate(-8.53 644.512 854.657)" class="st1" cx="644.3" cy="854.4" rx="11" ry="11"/><ellipse transform="rotate(-8.53 706.764 856.945)" class="st19" cx="706.6" cy="856.7" rx="11" ry="11"/><circle class="st1" cx="689.6" cy="796.6" r="11"/><circle class="st1" cx="875.9" cy="796.6" r="11"/><circle class="st1" cx="912.2" cy="854.4" r="11"/><circle class="st1" cx="786" cy="783.7" r="11"/><circle class="st1" cx="864.9" cy="867.7" r="11"/><circle class="st1" cx="789.5" cy="865.4" r="11"/><circle class="st19" cx="830.1" cy="818.5" r="11"/><circle class="st19" cx="834.9" cy="885.7" r="11"/></g></g><g><path class="st20" d="M744.5 794.7l-37.9 62"/></g></g><g><path class="st0" d="M60 59.3h7.1c4.4 0 7.7 1.2 7.7 5.2 0 1.9-1.1 3.9-3.5 4.5v.1c3 .5 4.5 2.1 4.5 4.9 0 4.3-3.6 6.1-8.1 6.1H60V59.3zm6.9 8.4c2.3 0 3.3-1 3.3-2.6s-1.1-2.2-3.3-2.2h-2.2v4.8h2.2zm.5 8.8c2.6 0 3.9-1 3.9-2.8 0-1.8-1.3-2.6-3.9-2.6h-2.6v5.5h2.6zM85.5 63.9c4.5 0 6.8 3.3 6.8 7.6 0 .8-.1 1.6-.2 2h-9.5c.4 2.4 2 3.5 4.1 3.5 1.2 0 2.3-.4 3.4-1.1l1.6 2.8c-1.6 1.1-3.7 1.8-5.6 1.8-4.5 0-8-3.1-8-8.3 0-5.2 3.6-8.3 7.4-8.3zm2.8 6.7c0-1.8-.8-3.1-2.7-3.1-1.5 0-2.8 1-3.1 3.1h5.8zM104.5 61.3c-.5-.2-1.1-.3-1.6-.3-1.2 0-1.8.6-1.8 2.3v1h2.8V68h-2.8v12.2h-4.7V67.9h-2.1v-3.5l2.1-.2v-.9c0-3.4 1.6-6.1 5.9-6.1 1.3 0 2.5.3 3.2.6l-1 3.5zM113.3 63.9c4 0 7.7 3 7.7 8.3s-3.7 8.3-7.7 8.3-7.7-3-7.7-8.3 3.7-8.3 7.7-8.3zm0 12.8c1.9 0 2.9-1.8 2.9-4.5s-1-4.5-2.9-4.5c-2 0-2.9 1.8-2.9 4.5s.9 4.5 2.9 4.5zM124.2 64.3h3.8l.3 2.8h.1c1.2-2.1 2.9-3.2 4.5-3.2.9 0 1.4.1 1.9.3l-.8 4.1c-.6-.2-1.1-.3-1.7-.3-1.2 0-2.7.8-3.5 2.9v9.2h-4.7V64.3zM143.5 63.9c4.5 0 6.8 3.3 6.8 7.6 0 .8-.1 1.6-.2 2h-9.5c.4 2.4 2 3.5 4.1 3.5 1.2 0 2.3-.4 3.4-1.1l1.6 2.8c-1.6 1.1-3.7 1.8-5.6 1.8-4.5 0-8-3.1-8-8.3-.1-5.2 3.6-8.3 7.4-8.3zm2.8 6.7c0-1.8-.8-3.1-2.7-3.1-1.5 0-2.8 1-3.1 3.1h5.8zM170.4 75.2H164l-1.3 5h-4.8l6.6-20.9h5.6l6.6 20.9h-5l-1.3-5zm-1-3.7l-.5-1.9c-.6-2.1-1.1-4.5-1.7-6.7h-.1c-.5 2.2-1.1 4.6-1.6 6.7l-.5 1.9h4.4zM190.1 80.1l-4-7.5h-2.6v7.5h-4.7V59.3h7.5c4.4 0 8.1 1.5 8.1 6.5 0 3.1-1.5 5-3.7 6l4.7 8.4h-5.3zm-6.5-11.2h2.4c2.5 0 3.8-1.1 3.8-3.1S188.4 63 186 63h-2.4v5.9zM198.5 59.3h4.7v20.9h-4.7V59.3zM217.9 75.2h-6.4l-1.3 5h-4.8l6.6-20.9h5.6l6.6 20.9h-5l-1.3-5zm-.9-3.7l-.5-1.9c-.6-2.1-1.1-4.5-1.7-6.7h-.1c-.5 2.2-1.1 4.6-1.6 6.7l-.5 1.9h4.4z"/></g><path class="st1" d="M218 603.8H0v-72h219.4c19 0 34.3 15.4 34.3 34.3v1.9c0 19.7-16 35.8-35.7 35.8z"/><g><path class="st0" d="M94.1 572.4h-6.4l-1.3 5h-4.8l6.6-20.9h5.6l6.6 20.9h-5l-1.3-5zm-.9-3.7l-.5-1.9c-.6-2.1-1.1-4.5-1.7-6.7h-.1c-.5 2.2-1.1 4.6-1.6 6.7l-.5 1.9h4.4zM121.6 577.2c-.8.3-2 .6-3.5.6-3.9 0-5.5-2.5-5.5-6.1v-6.4h-4.9v12.2H103v-12.2h-2.1v-3.5l2.1-.2v-.9c0-3.4 1.6-6.1 5.9-6.1 1.3 0 2.5.3 3.2.6l-.9 3.5c-.5-.2-1.1-.3-1.6-.3-1.2 0-1.8.6-1.8 2.3v1h5.2l.5-4.2h3.9v4.2h3.8v3.7h-3.8v6.4c0 1.8.8 2.5 2 2.5.5 0 1.1-.2 1.5-.3l.7 3.2zM130.8 561.1c4.5 0 6.8 3.3 6.8 7.6 0 .8-.1 1.6-.2 2h-9.5c.4 2.4 2 3.5 4.1 3.5 1.2 0 2.3-.4 3.4-1.1l1.6 2.8c-1.6 1.1-3.7 1.8-5.6 1.8-4.5 0-8-3.1-8-8.3-.1-5.1 3.6-8.3 7.4-8.3zm2.7 6.7c0-1.8-.8-3.1-2.7-3.1-1.5 0-2.8 1-3.1 3.1h5.8zM140.8 561.5h3.8l.3 2.8h.1c1.2-2.1 2.9-3.2 4.5-3.2.9 0 1.4.1 1.9.3l-.8 4.1c-.6-.2-1.1-.3-1.7-.3-1.2 0-2.7.8-3.5 2.9v9.2h-4.7v-15.8zM170.4 572.4H164l-1.3 5h-4.8l6.6-20.9h5.6l6.6 20.9h-5l-1.3-5zm-1-3.7l-.5-1.9c-.6-2.1-1.1-4.5-1.7-6.7h-.1c-.5 2.2-1.1 4.6-1.6 6.7l-.5 1.9h4.4zM190.1 577.4l-4-7.5h-2.6v7.5h-4.7v-20.9h7.5c4.4 0 8.1 1.5 8.1 6.5 0 3.1-1.5 5-3.7 6l4.7 8.4h-5.3zm-6.5-11.3h2.4c2.5 0 3.8-1.1 3.8-3.1s-1.3-2.8-3.8-2.8h-2.4v5.9zM198.5 556.5h4.7v20.9h-4.7v-20.9zM217.9 572.4h-6.4l-1.3 5h-4.8l6.6-20.9h5.6l6.6 20.9h-5l-1.3-5zm-.9-3.7l-.5-1.9c-.6-2.1-1.1-4.5-1.7-6.7h-.1c-.5 2.2-1.1 4.6-1.6 6.7l-.5 1.9h4.4z"/></g></svg>