<svg xmlns="http://www.w3.org/2000/svg" viewBox="0 0 256.5 486"><defs><style>.cls-1{fill:#808184;}.cls-1,.cls-2{stroke:#58595b;}.cls-1,.cls-2,.cls-9{stroke-miterlimit:10;}.cls-13,.cls-2,.cls-9{fill:#fff;}.cls-11,.cls-3{fill:#404041;}.cls-4{font-size:100px;fill:#eb008b;}.cls-10,.cls-11,.cls-13,.cls-4,.cls-8{font-family:OpenSans-Light, Open Sans;}.cls-5{font-size:24px;fill:#ed458b;font-family:OpenSans-Bold, Open Sans;}.cls-6,.cls-7{font-weight:700;}.cls-7{fill:#f6921e;}.cls-8{fill:#e6e7e8;}.cls-9{stroke:#d0d2d3;}.cls-10{font-size:18px;fill:#bbbdbf;}.cls-11{font-size:12px;}.cls-12{fill:#d0d2d3;}.cls-13{font-size:13px;}</style></defs><title>Artboard 9</title><g id="Layer_2" data-name="Layer 2"><path class="cls-1" d="M30.9,3.38H225.6A26.51,26.51,0,0,1,252.1,29.88V468.57a14.51,14.51,0,0,1-14.51,14.51H18.9A14.51,14.51,0,0,1,4.4,468.57V29.88A26.51,26.51,0,0,1,30.9,3.38Z"/><rect class="cls-2" x="8.75" y="52.09" width="239.01" height="374.61"/><circle class="cls-1" cx="128.25" cy="455.37" r="16.5"/><rect class="cls-1" x="103.25" y="23.49" width="70" height="7" rx="3.5" ry="3.5"/><rect class="cls-1" x="83.25" y="22.24" width="9.5" height="9.5" rx="4.75" ry="4.75"/></g><g id="Layer_1" data-name="Layer 1"><rect class="cls-3" x="8.75" y="51.75" width="239.01" height="46.28"/><text class="cls-4" transform="translate(71.17 336.01)">25</text><text class="cls-5" transform="translate(30.8 83.66)"><tspan class="cls-6">Number</tspan><tspan class="cls-7" x="99.12" y="0"> </tspan><tspan class="cls-8" x="105.35" y="0">Guesser</tspan></text><rect class="cls-9" x="21.51" y="118.47" width="213.49" height="28.05"/><text class="cls-10" transform="translate(28.36 138.58)">Enter your guess</text><text class="cls-11" transform="translate(75.81 245.87)">Your last guess was</text><text class="cls-11" transform="translate(86.94 363.21)">That is too high</text><rect class="cls-12" x="21.51" y="383.31" width="213.48" height="24" rx="12" ry="12"/><text class="cls-13" transform="translate(112.05 399.48)">Reset</text><rect class="cls-12" x="21.51" y="193.2" width="213.48" height="24" rx="12" ry="12"/><text class="cls-13" transform="translate(113.2 209.37)">Clear</text><rect class="cls-12" x="21.51" y="158.53" width="213.48" height="24" rx="12" ry="12"/><text class="cls-13" transform="translate(110.09 174.71)">Guess</text></g></svg>