<svg xmlns="http://www.w3.org/2000/svg" viewBox="0 0 409.9 799.53"><defs><style>.cls-1{font-size:125px;}.cls-1,.cls-23{fill:#eb008b;}.cls-1,.cls-2,.cls-21,.cls-29{font-family:OpenSans-Light, Open Sans;}.cls-10,.cls-2,.cls-21,.cls-4{font-size:18px;}.cls-2,.cls-3{fill:#404041;}.cls-17,.cls-4{fill:#231f20;}.cls-10,.cls-4{font-family:SofiaProRegular, Sofia Pro;}.cls-5{letter-spacing:-0.09em;}.cls-6{letter-spacing:-0.01em;}.cls-7{letter-spacing:0.04em;}.cls-8{letter-spacing:0em;}.cls-9{letter-spacing:-0.02em;}.cls-10{fill:#f1f1f2;}.cls-11{letter-spacing:-0.02em;}.cls-12{letter-spacing:-0.03em;}.cls-13{letter-spacing:-0.01em;}.cls-14{letter-spacing:-0.02em;}.cls-15{letter-spacing:0em;}.cls-16{fill:none;stroke:#231f20;stroke-miterlimit:10;}.cls-18{letter-spacing:-0.03em;}.cls-19{letter-spacing:-0.05em;}.cls-20{fill:#d0d2d3;}.cls-21{fill:#fff;}.cls-22{letter-spacing:-0.02em;}.cls-24{letter-spacing:-0.01em;}.cls-25{letter-spacing:-0.02em;}.cls-26{font-size:24px;fill:#ed458b;font-family:OpenSans-Bold, Open Sans;}.cls-27,.cls-28{font-weight:700;}.cls-28{fill:#f6921e;}.cls-29{fill:#e6e7e8;}</style></defs><title>Artboard 11</title><g id="Layer_1" data-name="Layer 1"><text class="cls-1" transform="translate(30.29 758.99)">25</text><text class="cls-2" transform="translate(22.97 640.34)">Your last guess was</text><rect class="cls-3" x="13.56" y="88.29" width="375.3" height="69.34"/><text class="cls-4" transform="translate(52.62 54.61)"><tspan class="cls-5">T</tspan><tspan class="cls-6" x="8.59" y="0">e</tspan><tspan x="18.41" y="0">x</tspan><tspan class="cls-7" x="27.41" y="0">t</tspan><tspan x="34.04" y="0">: </tspan><tspan class="cls-8" x="43.56" y="0">O</tspan><tspan x="57.8" y="0">pen Sans, Bold 700, Ligh</tspan><tspan class="cls-9" x="259.38" y="0">t</tspan><tspan x="264.94" y="0" xml:space="preserve"> 300</tspan></text><text class="cls-10" transform="translate(78.02 128.09)"><tspan class="cls-6">H</tspan><tspan x="12.56" y="0">eade</tspan><tspan class="cls-11" x="54.61" y="0">r</tspan><tspan x="61.29" y="0" xml:space="preserve"> Bac</tspan><tspan class="cls-12" x="97.51" y="0">k</tspan><tspan x="106.02" y="0">g</tspan><tspan class="cls-13" x="117.02" y="0">r</tspan><tspan x="123.91" y="0">ound: </tspan><tspan class="cls-14" x="175.12" y="0">#</tspan><tspan class="cls-15" x="186.62" y="0">404041</tspan></text><polyline class="cls-16" points="82.05 221.61 93.27 209.62 226.31 208.62"/><polygon class="cls-17" points="85.53 222.15 76 228.08 81.28 218.18 85.53 222.15"/><text class="cls-4" transform="translate(232.03 213.95)"><tspan class="cls-6">He</tspan><tspan x="22.39" y="0">x</tspan><tspan class="cls-18" x="31.39" y="0"> </tspan><tspan class="cls-19" x="35.51" y="0">V</tspan><tspan x="44.78" y="0">alue: #ED458B</tspan></text><text class="cls-4" transform="translate(232.03 240.95)"><tspan class="cls-6">He</tspan><tspan x="22.39" y="0">x</tspan><tspan class="cls-18" x="31.39" y="0"> </tspan><tspan class="cls-19" x="35.51" y="0">V</tspan><tspan x="44.78" y="0">alue: #E6E7E8</tspan></text><line class="cls-16" x1="225.81" y1="232.83" x2="213.94" y2="232.83"/><polygon class="cls-17" points="215.92 229.93 205.08 232.84 215.92 235.74 215.92 229.93"/><rect class="cls-20" x="12.32" y="323.1" width="204" height="29.96" rx="14.98" ry="14.98"/><text class="cls-21" transform="translate(89.18 342.85)">Guess</text><polyline class="cls-16" points="62.47 323.72 80.13 302.12 120.17 302.12"/><polygon class="cls-17" points="65.97 324.02 56.86 330.58 61.47 320.35 65.97 324.02"/><text class="cls-4" transform="translate(125.89 307.45)"><tspan class="cls-6">He</tspan><tspan x="22.39" y="0">x</tspan><tspan class="cls-18" x="31.39" y="0"> </tspan><tspan class="cls-19" x="35.51" y="0">V</tspan><tspan x="44.78" y="0">alue: #D0D2D3</tspan></text><polyline class="cls-16" points="104.53 351.05 114.13 378.79 120.17 378.79"/><polygon class="cls-17" points="102.44 353.87 101.64 342.68 107.93 351.97 102.44 353.87"/><text class="cls-4" transform="translate(125.89 384.12)"><tspan class="cls-6">He</tspan><tspan x="22.39" y="0">x</tspan><tspan class="cls-18" x="31.39" y="0"> </tspan><tspan class="cls-19" x="35.51" y="0">V</tspan><tspan x="44.78" y="0">alue: #FFFFF</tspan><tspan class="cls-22" x="148.97" y="0">F</tspan></text><rect class="cls-23" x="12.32" y="488.12" width="204" height="29.96" rx="14.98" ry="14.98"/><text class="cls-21" transform="translate(89.18 507.87)">Guess</text><polyline class="cls-16" points="62.47 488.74 80.13 467.13 120.17 467.13"/><polygon class="cls-17" points="65.97 489.04 56.86 495.59 61.47 485.36 65.97 489.04"/><text class="cls-4" transform="translate(125.89 472.47)"><tspan class="cls-6">He</tspan><tspan x="22.39" y="0">x</tspan><tspan class="cls-18" x="31.39" y="0"> </tspan><tspan class="cls-19" x="35.51" y="0">V</tspan><tspan x="44.78" y="0">alue: #EB008B</tspan></text><text class="cls-4" transform="translate(11.89 451.47)">on :h<tspan class="cls-24" x="40.52" y="0">ov</tspan><tspan x="59.72" y="0">e</tspan><tspan class="cls-11" x="69.73" y="0">r</tspan></text><polyline class="cls-16" points="104.53 516.07 114.13 543.8 120.17 543.8"/><polygon class="cls-17" points="102.44 518.89 101.64 507.69 107.93 516.99 102.44 518.89"/><text class="cls-4" transform="translate(125.89 549.14)"><tspan class="cls-6">He</tspan><tspan x="22.39" y="0">x</tspan><tspan class="cls-18" x="31.39" y="0"> </tspan><tspan class="cls-19" x="35.51" y="0">V</tspan><tspan x="44.78" y="0">alue: #FFFFF</tspan><tspan class="cls-22" x="148.97" y="0">F</tspan></text><text class="cls-4" transform="translate(210.49 640.02)"><tspan class="cls-6">He</tspan><tspan x="22.39" y="0">x</tspan><tspan class="cls-18" x="31.39" y="0"> </tspan><tspan class="cls-19" x="35.51" y="0">V</tspan><tspan x="44.78" y="0">alue: </tspan><tspan class="cls-25" x="89.82" y="0">#</tspan><tspan x="101.32" y="0">404041</tspan></text><line class="cls-16" x1="204.76" y1="634.59" x2="184.58" y2="634.59"/><polygon class="cls-17" points="186.56 631.68 175.72 634.59 186.56 637.49 186.56 631.68"/><text class="cls-4" transform="translate(211.59 688.61)"><tspan class="cls-6">He</tspan><tspan x="22.39" y="0">x</tspan><tspan class="cls-18" x="31.39" y="0"> </tspan><tspan class="cls-19" x="35.51" y="0">V</tspan><tspan x="44.78" y="0">alue: #EB008B</tspan></text><line class="cls-16" x1="205.86" y1="683.18" x2="127.68" y2="683.18"/><polygon class="cls-17" points="129.66 680.27 118.82 683.18 129.66 686.08 129.66 680.27"/><text class="cls-26" transform="translate(13.56 238.83)"><tspan class="cls-27">Number</tspan><tspan class="cls-28" x="99.12" y="0"> </tspan><tspan class="cls-29" x="105.35" y="0">Guesser</tspan></text></g></svg>