<svg xmlns="http://www.w3.org/2000/svg" viewBox="0 0 653 542"><defs><style>.cls-1{fill:#808184;}.cls-1,.cls-2,.cls-3,.cls-4,.cls-5{stroke:#58595b;}.cls-1,.cls-14,.cls-2,.cls-3,.cls-4,.cls-5{stroke-miterlimit:10;}.cls-13,.cls-14,.cls-17,.cls-2{fill:#fff;}.cls-3{fill:#ec1c24;}.cls-4{fill:#fff100;}.cls-5{fill:#37b34a;}.cls-16,.cls-6{fill:#404041;}.cls-7{font-size:125px;fill:#eb008b;}.cls-11,.cls-13,.cls-15,.cls-16,.cls-17,.cls-7{font-family:OpenSans-Light, Open Sans;}.cls-8{font-size:36px;fill:#ed458b;font-family:OpenSans-Bold, Open Sans;}.cls-10,.cls-9{font-weight:700;}.cls-10{fill:#f6921e;}.cls-11{fill:#e6e7e8;}.cls-12{fill:#d0d2d3;}.cls-13,.cls-15,.cls-16{font-size:18px;}.cls-14{stroke:#d0d2d3;}.cls-15{fill:#bbbdbf;}.cls-17{font-size:13px;}</style></defs><title>Artboard 1 copy</title><g id="Layer_2" data-name="Layer 2"><path class="cls-1" d="M16.49,3.51h620.9a12,12,0,0,1,12,12V538.2a0,0,0,0,1,0,0H4.49a0,0,0,0,1,0,0V15.51A12,12,0,0,1,16.49,3.51Z"/><rect class="cls-2" x="9.08" y="42.22" width="635.71" height="491.84"/><circle class="cls-3" cx="21.07" cy="23.09" r="6.38"/><circle class="cls-4" cx="42.71" cy="23.09" r="6.38"/><circle class="cls-5" cx="64.34" cy="23.09" r="6.38"/></g><g id="Layer_1" data-name="Layer 1"><rect class="cls-6" x="9.08" y="42.22" width="635.71" height="66.08"/><text class="cls-7" transform="translate(255.59 398.31)">25</text><text class="cls-8" transform="translate(180.76 88.31)"><tspan class="cls-9">Number</tspan><tspan class="cls-10" x="148.68" y="0"> </tspan><tspan class="cls-11" x="158.03" y="0">Guesser</tspan></text><rect class="cls-12" x="187.49" y="196.2" width="129.2" height="27.78" rx="13.89" ry="13.89"/><text class="cls-13" transform="translate(226.94 216.27)">Guess</text><rect class="cls-12" x="337.2" y="196.2" width="129.2" height="27.78" rx="13.89" ry="13.89"/><text class="cls-13" transform="translate(380.96 216.27)">Clear</text><rect class="cls-14" x="187.49" y="140.43" width="278.91" height="28.05"/><text class="cls-15" transform="translate(194.34 160.53)">Enter your guess</text><text class="cls-16" transform="translate(248.28 279.65)">Your last guess was</text><text class="cls-16" transform="translate(264.97 435.64)">That is too high</text><rect class="cls-12" x="187.49" y="477" width="278.91" height="24" rx="12" ry="12"/><text class="cls-17" transform="translate(310.74 493.17)">Reset</text></g></svg>