<svg xmlns="http://www.w3.org/2000/svg" xmlns:xlink="http://www.w3.org/1999/xlink" version="1.1" id="Your_Icon" x="0px" y="0px" width="100px" height="100px" viewBox="0 0 100 100" enable-background="new 0 0 100 100" xml:space="preserve">
<g>
	<path fill="#000000" d="M94.425,23.535c-0.177,0-1.425,0.004-2.425,0.06v-2.38c0-2.882-1.72-5.055-4.305-5.055   c-0.293,0-0.475,0.029-0.771,0.088c-0.209,0.041-20.483,4.188-36.399,16.918C47.445,30.702,44,28.56,41,26.707v-2.512   c0-4.437-0.539-8.968-7.338-11.338l-8.687-3.034c-0.906-0.327-1.792-0.492-2.65-0.492c-4.078,0-6.511,3.691-6.511,7.26   c0,0.012,0.002,0.022,0.004,0.034c-1.017-0.25-1.603-0.37-1.638-0.376c-0.294-0.058-0.972-0.087-1.265-0.087   C10.332,16.16,8,18.333,8,21.214v2.38c-1-0.055-2.247-0.06-2.425-0.06c-3.073,0-5.575,2.5-5.575,5.573v43.871   c0,2.715,3,4.981,5,5.473v4.79C5,86.315,7.793,89,10.867,89h31.475c0.887,1,2.815,3,5.053,3h6.438c2.236,0,4.165-2,5.052-3h32.681   C94.64,89,97,86.315,97,83.242v-5.168c2-0.869,3-2.824,3-5.095V29.108C100,26.035,97.499,23.535,94.425,23.535z M91.564,85H60.619   C73.805,80,87,78.757,92,78.591v4.65C92,83.942,92.266,85,91.564,85z M9,83.242v-4.604C16,78.9,28.327,80,40.607,85h-29.74   C10.167,85,9,83.942,9,83.242z M5,29.108c0-0.7,0.223-1.27,0.924-1.27C5.969,27.838,7,27.842,8,27.911v37.176   c0,2.91,2.394,5.588,4.964,6.099c1.326,0.263,9.451,1.946,18.808,6.257C19.05,74.385,7.982,74.25,6.21,74.25   C5.51,74.25,5,73.68,5,72.979V29.108z M13.061,20.469C13.137,20.484,16,21.056,20,22.414v27.95c0,0.692,0.613,1.333,1.209,1.684   c0.598,0.352,1.459,0.363,2.063,0.029l6.883-3.759l7.417,8.824c0.379,0.453,0.947,0.701,1.515,0.701   c0.223,0,0.428-0.039,0.646-0.118C40.507,57.444,41,56.709,41,55.886V31.704c2,1.556,5,3.301,8,5.254v0.292v44.935   C34,71.062,16.488,67.373,14.418,66.963C13.971,66.874,13,66.046,13,65.086V21.214C13,20.734,12.953,20.494,13.061,20.469z    M22.332,13.242c0.404,0,0.853,0.087,1.35,0.267l8.647,3.042C36.415,17.975,37,19.97,37,24.194v26.309l-4.893-5.931   c-0.381-0.457-0.898-0.701-1.463-0.701c-0.32,0-0.832,0.08-1.129,0.243L24,47.052V21.303c0-1.699,0.205-5.676-3.932-5.676   c-0.148,0-0.196,0.018-0.339,0.05C19.985,14.508,20.845,13.242,22.332,13.242z M88,65.086c0,0.996-0.475,1.788-0.92,1.877   C85.012,67.373,68,71.064,53,82.186V37.25v-0.292c15-12.418,34.719-16.45,34.967-16.497C88.029,20.494,88,20.733,88,21.214V65.086z    M94.809,74.25c-1.773,0-12.861,0.133-25.582,3.191c9.354-4.311,17.074-5.994,18.4-6.256C90.198,70.676,92,67.997,92,65.086V27.911   c1-0.068,2.532-0.072,2.577-0.072c0.701,0,1.423,0.569,1.423,1.27v43.871C96,73.68,95.509,74.25,94.809,74.25z"/>
</g>
</svg>