<?xml version="1.0" encoding="UTF-8"?>
<svg width="438px" height="221px" viewBox="0 0 438 221" version="1.1" xmlns="http://www.w3.org/2000/svg" xmlns:xlink="http://www.w3.org/1999/xlink">
    <!-- Generator: Sketch 48.1 (47250) - http://www.bohemiancoding.com/sketch -->
    <title>FEE</title>
    <desc>Created with Sketch.</desc>
    <defs></defs>
    <g id="FEE" stroke="none" stroke-width="1" fill="none" fill-rule="evenodd" transform="translate(0.000000, -108.000000)">
        <g transform="translate(0.000000, 109.000000)" fill="#f9ae06" stroke="#f9ae06" stroke-width="2">
            <path style="fill: #f9ae06;" d="M122.254964,219 C119.321783,219 116.502374,217.936032 114.308711,216.003158 L3.99623623,118.430235 C1.45770183,116.185263 0,112.933069 0,109.51064 C0,106.091757 1.46481257,102.83247 4.02112382,100.569765 L114.298045,3.02876113 C116.477487,1.07815385 119.304006,0 122.254964,0 C125.668119,0 128.924838,1.46118219 131.193165,4.01115789 C133.322831,6.3979919 134.392998,9.46931174 134.204563,12.657668 C134.012573,15.8424777 132.590425,18.7542024 130.197661,20.8608583 L29.9575503,109.51064 L130.201216,198.142688 C132.604647,200.27417 134.023239,203.207174 134.204563,206.39553 C134.385887,209.576794 133.315721,212.623287 131.200275,214.981749 C128.963947,217.531725 125.700117,219 122.254964,219" id="Fill-76"></path>
            <path style="fill: #f9ae06;" d="M315.743657,219 C312.298464,219 309.038153,217.535271 306.8018,214.985296 C304.686331,212.630381 303.612597,209.576794 303.793923,206.39553 C303.975249,203.203628 305.397413,200.27417 307.797315,198.142688 L408.042112,109.51064 L307.80087,20.8608583 C305.408079,18.7506559 303.985915,15.8389312 303.797478,12.657668 C303.605486,9.46931174 304.672109,6.40508502 306.794689,4.02179757 C309.034598,1.4682753 312.291354,0 315.722325,0 C318.687537,0 321.517644,1.07460729 323.69711,3.02521457 L434.01083,100.576858 C436.549393,102.853749 438,106.105943 438,109.51064 C438,112.947255 436.531615,116.199449 433.97172,118.437328 L323.689999,216.003158 C321.499867,217.936032 318.676871,219 315.743657,219" id="Fill-80"></path>
            <path style="fill: #f9ae06;" d="M192.064231,211.935484 C190.701227,211.935484 189.348844,211.707735 188.046025,211.259354 C185.001393,210.156194 182.60817,207.964109 181.280569,205.070984 C179.935267,202.170742 179.779495,198.921759 180.845116,195.925436 L245.316969,15.0072651 C247.04108,10.2530032 251.558464,7.06451613 256.557325,7.06451613 C257.814121,7.06451613 259.155883,7.30649952 260.55429,7.78690772 C263.588301,8.8900673 265.981523,11.0785936 267.316205,13.9468085 C268.661507,16.8790778 268.817279,20.1351778 267.751658,23.1172673 L203.283346,204.006969 C201.594637,208.746997 197.084333,211.935484 192.064231,211.935484" id="Fill-84"></path>
        </g>
    </g>
</svg>
