<svg style="position: absolute; width: 0; height: 0; overflow: hidden;" version="1.1" xmlns="http://www.w3.org/2000/svg" xmlns:xlink="http://www.w3.org/1999/xlink">
<defs>
<symbol id="icon-file-text" viewBox="0 0 32 32">
<title>file-text</title>
<path d="M27 0h-24c-1.65 0-3 1.35-3 3v26c0 1.65 1.35 3 3 3h24c1.65 0 3-1.35 3-3v-26c0-1.65-1.35-3-3-3zM26 28h-22v-24h22v24zM8 14h14v2h-14zM8 18h14v2h-14zM8 22h14v2h-14zM8 10h14v2h-14z"></path>
</symbol>
<symbol id="icon-calendar" viewBox="0 0 32 32">
<title>calendar</title>
<path d="M10 12h4v4h-4zM16 12h4v4h-4zM22 12h4v4h-4zM4 24h4v4h-4zM10 24h4v4h-4zM16 24h4v4h-4zM10 18h4v4h-4zM16 18h4v4h-4zM22 18h4v4h-4zM4 18h4v4h-4zM26 0v2h-4v-2h-14v2h-4v-2h-4v32h30v-32h-4zM28 30h-26v-22h26v22z"></path>
</symbol>
<symbol id="icon-users" viewBox="0 0 36 32">
<title>users</title>
<path d="M24 24.082v-1.649c2.203-1.241 4-4.337 4-7.432 0-4.971 0-9-6-9s-6 4.029-6 9c0 3.096 1.797 6.191 4 7.432v1.649c-6.784 0.555-12 3.888-12 7.918h28c0-4.030-5.216-7.364-12-7.918z"></path>
<path d="M10.225 24.854c1.728-1.13 3.877-1.989 6.243-2.513-0.47-0.556-0.897-1.176-1.265-1.844-0.95-1.726-1.453-3.627-1.453-5.497 0-2.689 0-5.228 0.956-7.305 0.928-2.016 2.598-3.265 4.976-3.734-0.529-2.39-1.936-3.961-5.682-3.961-6 0-6 4.029-6 9 0 3.096 1.797 6.191 4 7.432v1.649c-6.784 0.555-12 3.888-12 7.918h8.719c0.454-0.403 0.956-0.787 1.506-1.146z"></path>
</symbol>
<symbol id="icon-hammer" viewBox="0 0 32 32">
<title>hammer</title>
<path d="M31.562 25.905l-9.423-9.423c-0.583-0.583-1.538-0.583-2.121 0l-0.707 0.707-5.75-5.75 9.439-9.439h-10l-4.439 4.439-0.439-0.439h-2.121v2.121l0.439 0.439-6.439 6.439 5 5 6.439-6.439 5.75 5.75-0.707 0.707c-0.583 0.583-0.583 1.538 0 2.121l9.423 9.423c0.583 0.583 1.538 0.583 2.121 0l3.535-3.535c0.583-0.583 0.583-1.538 0-2.121z"></path>
</symbol>
<symbol id="icon-rocket" viewBox="0 0 32 32">
<title>rocket</title>
<path d="M22 2l-10 10h-6l-6 8c0 0 6.357-1.77 10.065-0.94l-10.065 12.94 13.184-10.255c1.839 4.208-1.184 10.255-1.184 10.255l8-6v-6l10-10 2-10-10 2z"></path>
</symbol>
<symbol id="icon-lab" viewBox="0 0 32 32">
<title>lab</title>
<path d="M29.884 25.14l-9.884-16.47v-6.671h1c0.55 0 1-0.45 1-1s-0.45-1-1-1h-10c-0.55 0-1 0.45-1 1s0.45 1 1 1h1v6.671l-9.884 16.47c-2.264 3.773-0.516 6.86 3.884 6.86h20c4.4 0 6.148-3.087 3.884-6.86zM7.532 20l6.468-10.779v-7.221h4v7.221l6.468 10.779h-16.935z"></path>
</symbol>
<symbol id="icon-briefcase" viewBox="0 0 32 32">
<title>briefcase</title>
<path d="M30 8h-8v-2c0-1.1-0.9-2-2-2h-8c-1.1 0-2 0.9-2 2v2h-8c-1.1 0-2 0.9-2 2v18c0 1.1 0.9 2 2 2h28c1.1 0 2-0.9 2-2v-18c0-1.1-0.9-2-2-2zM12 6.004c0.001-0.001 0.002-0.003 0.004-0.004h7.993c0.001 0.001 0.003 0.002 0.004 0.004v1.996h-8v-1.996zM30 16h-4v3c0 0.55-0.45 1-1 1h-2c-0.55 0-1-0.45-1-1v-3h-12v3c0 0.55-0.45 1-1 1h-2c-0.55 0-1-0.45-1-1v-3h-4v-2h28v2z"></path>
</symbol>
<symbol id="icon-earth" viewBox="0 0 32 32">
<title>earth</title>
<path d="M16 0c-8.837 0-16 7.163-16 16s7.163 16 16 16 16-7.163 16-16-7.163-16-16-16zM16 30c-1.967 0-3.84-0.407-5.538-1.139l7.286-8.197c0.163-0.183 0.253-0.419 0.253-0.664v-3c0-0.552-0.448-1-1-1-3.531 0-7.256-3.671-7.293-3.707-0.188-0.188-0.442-0.293-0.707-0.293h-4c-0.552 0-1 0.448-1 1v6c0 0.379 0.214 0.725 0.553 0.894l3.447 1.724v5.871c-3.627-2.53-6-6.732-6-11.489 0-2.147 0.484-4.181 1.348-6h3.652c0.265 0 0.52-0.105 0.707-0.293l4-4c0.188-0.188 0.293-0.442 0.293-0.707v-2.419c1.268-0.377 2.61-0.581 4-0.581 2.2 0 4.281 0.508 6.134 1.412-0.13 0.109-0.256 0.224-0.376 0.345-1.133 1.133-1.757 2.64-1.757 4.243s0.624 3.109 1.757 4.243c1.139 1.139 2.663 1.758 4.239 1.758 0.099 0 0.198-0.002 0.297-0.007 0.432 1.619 1.211 5.833-0.263 11.635-0.014 0.055-0.022 0.109-0.026 0.163-2.541 2.596-6.084 4.208-10.004 4.208z"></path>
</symbol>
</defs>
</svg>